<svg width="80" height="80" viewBox="0 0 80 80" fill="none" xmlns="http://www.w3.org/2000/svg">
<g clip-path="url(#clip0_113_2)">
<mask id="path-1-inside-1_113_2" fill="white">
<path fill-rule="evenodd" clip-rule="evenodd" d="M52.27 14.8032L39.8088 3L26.4455 17.1084C29.9761 18.5241 32.4695 21.9784 32.4695 26.015C32.4695 31.3126 28.1749 35.6072 22.8773 35.6072C19.0251 35.6072 15.7033 33.3365 14.1773 30.0606L4 40.8054L16.5444 52.6873C13.2889 54.0422 11 57.2538 11 61C11 65.9706 15.0294 70 20 70C23.9187 70 27.2524 67.4956 28.4879 64L38.2238 73.2217L50.3893 60.378C48.507 58.6266 47.3297 56.1278 47.3297 53.354C47.3297 48.0563 51.6243 43.7617 56.9219 43.7617C59.5086 43.7617 61.8562 44.7856 63.5815 46.4502L74.0326 35.4164L63.667 25.5983C67.3354 24.4616 70 21.042 70 17C70 12.0294 65.9706 8 61 8C56.7872 8 53.2505 10.8944 52.27 14.8032Z"/>
</mask>
<path fill-rule="evenodd" clip-rule="evenodd" d="M52.27 14.8032L39.8088 3L26.4455 17.1084C29.9761 18.5241 32.4695 21.9784 32.4695 26.015C32.4695 31.3126 28.1749 35.6072 22.8773 35.6072C19.0251 35.6072 15.7033 33.3365 14.1773 30.0606L4 40.8054L16.5444 52.6873C13.2889 54.0422 11 57.2538 11 61C11 65.9706 15.0294 70 20 70C23.9187 70 27.2524 67.4956 28.4879 64L38.2238 73.2217L50.3893 60.378C48.507 58.6266 47.3297 56.1278 47.3297 53.354C47.3297 48.0563 51.6243 43.7617 56.9219 43.7617C59.5086 43.7617 61.8562 44.7856 63.5815 46.4502L74.0326 35.4164L63.667 25.5983C67.3354 24.4616 70 21.042 70 17C70 12.0294 65.9706 8 61 8C56.7872 8 53.2505 10.8944 52.27 14.8032Z" fill="#D9D9D9"/>
<path d="M39.8088 3L40.4964 2.27398L39.7704 1.58631L39.0828 2.31232L39.8088 3ZM52.27 14.8032L51.5824 15.5292L52.8239 16.7051L53.24 15.0465L52.27 14.8032ZM26.4455 17.1084L25.7195 16.4207L24.7077 17.4889L26.0733 18.0365L26.4455 17.1084ZM14.1773 30.0606L15.0838 29.6383L14.4628 28.305L13.4513 29.3729L14.1773 30.0606ZM4 40.8054L3.27398 40.1177L2.58631 40.8437L3.31232 41.5314L4 40.8054ZM16.5444 52.6873L16.9286 53.6105L18.3492 53.0193L17.2321 51.9613L16.5444 52.6873ZM28.4879 64L29.1756 63.274L28.058 62.2154L27.545 63.6667L28.4879 64ZM38.2238 73.2217L37.5361 73.9478L38.2622 74.6354L38.9498 73.9094L38.2238 73.2217ZM50.3893 60.378L51.1153 61.0656L51.8091 60.3331L51.0705 59.6459L50.3893 60.378ZM63.5815 46.4502L62.8871 47.1699L63.6134 47.8706L64.3075 47.1379L63.5815 46.4502ZM74.0326 35.4164L74.7586 36.104L75.4463 35.378L74.7203 34.6903L74.0326 35.4164ZM63.667 25.5983L63.3711 24.6431L61.7385 25.1489L62.9794 26.3243L63.667 25.5983ZM39.1211 3.72602L51.5824 15.5292L52.9577 14.0771L40.4964 2.27398L39.1211 3.72602ZM27.1715 17.796L40.5348 3.68768L39.0828 2.31232L25.7195 16.4207L27.1715 17.796ZM33.4695 26.015C33.4695 21.556 30.7146 17.7428 26.8177 16.1802L26.0733 18.0365C29.2377 19.3054 31.4695 22.4008 31.4695 26.015H33.4695ZM22.8773 36.6072C28.7272 36.6072 33.4695 31.8649 33.4695 26.015H31.4695C31.4695 30.7604 27.6226 34.6072 22.8773 34.6072V36.6072ZM13.2709 30.4828C14.9548 34.098 18.622 36.6072 22.8773 36.6072V34.6072C19.4282 34.6072 16.4518 32.575 15.0838 29.6383L13.2709 30.4828ZM4.72602 41.493L14.9034 30.7482L13.4513 29.3729L3.27398 40.1177L4.72602 41.493ZM17.2321 51.9613L4.68768 40.0794L3.31232 41.5314L15.8567 53.4133L17.2321 51.9613ZM16.1602 51.764C12.5448 53.2687 10 56.836 10 61H12C12 57.6716 14.0329 54.8157 16.9286 53.6105L16.1602 51.764ZM10 61C10 66.5228 14.4772 71 20 71V69C15.5817 69 12 65.4183 12 61H10ZM20 71C24.3556 71 28.0584 68.2159 29.4307 64.3332L27.545 63.6667C26.4463 66.7753 23.4817 69 20 69V71ZM38.9115 72.4957L29.1756 63.274L27.8002 64.726L37.5361 73.9478L38.9115 72.4957ZM49.6632 59.6903L37.4978 72.5341L38.9498 73.9094L51.1153 61.0656L49.6632 59.6903ZM46.3297 53.354C46.3297 56.4169 47.631 59.1775 49.7081 61.1101L51.0705 59.6459C49.383 58.0758 48.3297 55.8387 48.3297 53.354H46.3297ZM56.9219 42.7617C51.072 42.7617 46.3297 47.5041 46.3297 53.354H48.3297C48.3297 48.6086 52.1766 44.7617 56.9219 44.7617V42.7617ZM64.2758 45.7306C62.3717 43.8934 59.7779 42.7617 56.9219 42.7617V44.7617C59.2394 44.7617 61.3408 45.6779 62.8871 47.1699L64.2758 45.7306ZM73.3066 34.7287L62.8554 45.7625L64.3075 47.1379L74.7586 36.104L73.3066 34.7287ZM62.9794 26.3243L73.3449 36.1424L74.7203 34.6903L64.3547 24.8722L62.9794 26.3243ZM63.963 26.5535C68.0382 25.2908 71 21.4926 71 17H69C69 20.5914 66.6327 23.6325 63.3711 24.6431L63.963 26.5535ZM71 17C71 11.4772 66.5228 7 61 7V9C65.4183 9 69 12.5817 69 17H71ZM61 7C56.3178 7 52.3895 10.217 51.3001 14.5598L53.24 15.0465C54.1116 11.5719 57.2567 9 61 9V7Z" fill="black" mask="url(#path-1-inside-1_113_2)"/>
<mask id="path-3-inside-2_113_2" fill="white">
<path fill-rule="evenodd" clip-rule="evenodd" d="M56.4802 58.9928C55.274 63.0629 56.5807 67.6362 60.1232 70.4163C64.7567 74.0524 71.4605 73.2438 75.0966 68.6104C78.7327 63.977 77.9242 57.2732 73.2907 53.6371C69.7482 50.8571 64.9954 50.6751 61.3287 52.8144C61.1499 52.5302 60.92 52.2714 60.6407 52.0522L41.2677 36.8492C41.2317 36.821 41.1953 36.7937 41.1585 36.7674C41.126 36.7394 41.0928 36.712 41.0588 36.6853C39.8707 35.753 38.1518 35.9603 37.2195 37.1484L37.0632 37.3475L37.0555 37.3572L35.6952 39.0906L35.6877 39.1003L31.7202 44.156C30.7879 45.344 30.9952 47.0629 32.1833 47.9953C33.3713 48.9276 35.0902 48.7203 36.0226 47.5322L38.1456 44.8269L39.6813 46.0321L39.186 46.6633C38.2536 47.8514 38.4609 49.5703 39.649 50.5026C40.8371 51.435 42.556 51.2276 43.4883 50.0396L43.9836 49.4084L55.5763 58.5057C55.8556 58.7249 56.1616 58.8867 56.4802 58.9928Z"/>
</mask>
<path fill-rule="evenodd" clip-rule="evenodd" d="M56.4802 58.9928C55.274 63.0629 56.5807 67.6362 60.1232 70.4163C64.7567 74.0524 71.4605 73.2438 75.0966 68.6104C78.7327 63.977 77.9242 57.2732 73.2907 53.6371C69.7482 50.8571 64.9954 50.6751 61.3287 52.8144C61.1499 52.5302 60.92 52.2714 60.6407 52.0522L41.2677 36.8492C41.2317 36.821 41.1953 36.7937 41.1585 36.7674C41.126 36.7394 41.0928 36.712 41.0588 36.6853C39.8707 35.753 38.1518 35.9603 37.2195 37.1484L37.0632 37.3475L37.0555 37.3572L35.6952 39.0906L35.6877 39.1003L31.7202 44.156C30.7879 45.344 30.9952 47.0629 32.1833 47.9953C33.3713 48.9276 35.0902 48.7203 36.0226 47.5322L38.1456 44.8269L39.6813 46.0321L39.186 46.6633C38.2536 47.8514 38.4609 49.5703 39.649 50.5026C40.8371 51.435 42.556 51.2276 43.4883 50.0396L43.9836 49.4084L55.5763 58.5057C55.8556 58.7249 56.1616 58.8867 56.4802 58.9928Z" fill="#908E8E"/>
<path d="M56.4802 58.9928L57.439 59.2769L57.7138 58.3496L56.7961 58.044L56.4802 58.9928ZM61.3287 52.8144L60.4822 53.3469L60.9972 54.1656L61.8326 53.6782L61.3287 52.8144ZM60.6407 52.0522L60.0234 52.8389L60.6407 52.0522ZM41.2677 36.8492L41.885 36.0625L41.2677 36.8492ZM41.1585 36.7674L40.5053 37.5245L40.5398 37.5543L40.5769 37.5809L41.1585 36.7674ZM37.0632 37.3475L37.8485 37.9665L37.8499 37.9648L37.0632 37.3475ZM37.0555 37.3572L36.2702 36.7381L36.2689 36.7398L37.0555 37.3572ZM35.6952 39.0906L34.9086 38.4732L34.9072 38.4749L35.6952 39.0906ZM35.6877 39.1003L36.4743 39.7177L36.4757 39.7159L35.6877 39.1003ZM36.0226 47.5322L36.8093 48.1496L36.0226 47.5322ZM38.1456 44.8269L38.7629 44.0403L37.9762 43.4229L37.3589 44.2096L38.1456 44.8269ZM39.6813 46.0321L40.468 46.6495L41.0853 45.8628L40.2986 45.2454L39.6813 46.0321ZM43.9836 49.4084L44.601 48.6217L43.8143 48.0044L43.197 48.791L43.9836 49.4084ZM55.5763 58.5057L56.1937 57.7191L55.5763 58.5057ZM60.7406 69.6296C57.5314 67.1112 56.3453 62.9672 57.439 59.2769L55.5214 58.7086C54.2027 63.1586 55.6299 68.1612 59.5059 71.2029L60.7406 69.6296ZM74.3099 67.9931C71.0147 72.192 64.9395 72.9247 60.7406 69.6296L59.5059 71.2029C64.5738 75.18 71.9062 74.2957 75.8832 69.2278L74.3099 67.9931ZM72.6734 54.4238C76.8723 57.7189 77.605 63.7941 74.3099 67.9931L75.8832 69.2278C79.8603 64.1598 78.976 56.8275 73.9081 52.8504L72.6734 54.4238ZM61.8326 53.6782C65.1571 51.7385 69.4642 51.9054 72.6734 54.4238L73.9081 52.8504C70.0321 49.8087 64.8336 49.6118 60.8247 51.9507L61.8326 53.6782ZM60.0234 52.8389C60.211 52.9861 60.3638 53.1585 60.4822 53.3469L62.1751 52.282C61.9361 51.9019 61.6291 51.5567 61.2581 51.2655L60.0234 52.8389ZM40.6503 37.6359L60.0234 52.8389L61.2581 51.2655L41.885 36.0625L40.6503 37.6359ZM40.5769 37.5809C40.6016 37.5985 40.6261 37.6168 40.6503 37.6359L41.885 36.0625C41.8373 36.0251 41.789 35.9888 41.74 35.9539L40.5769 37.5809ZM40.4414 37.472C40.4633 37.4891 40.4845 37.5067 40.5053 37.5245L41.8117 36.0102C41.7675 35.9721 41.7223 35.9349 41.6761 35.8986L40.4414 37.472ZM38.0061 37.7657C38.5975 37.0121 39.6878 36.8806 40.4414 37.472L41.6761 35.8986C40.0536 34.6253 37.7061 34.9085 36.4328 36.531L38.0061 37.7657ZM37.8499 37.9648L38.0061 37.7657L36.4328 36.531L36.2765 36.7301L37.8499 37.9648ZM37.8409 37.9762L37.8485 37.9665L36.2778 36.7284L36.2702 36.7381L37.8409 37.9762ZM36.4819 39.7079L37.8422 37.9745L36.2689 36.7398L34.9086 38.4732L36.4819 39.7079ZM36.4757 39.7159L36.4833 39.7062L34.9072 38.4749L34.8996 38.4847L36.4757 39.7159ZM32.5069 44.7733L36.4743 39.7177L34.901 38.4829L30.9335 43.5386L32.5069 44.7733ZM32.8006 47.2086C32.047 46.6172 31.9155 45.5269 32.5069 44.7733L30.9335 43.5386C29.6602 45.1611 29.9434 47.5087 31.5659 48.782L32.8006 47.2086ZM35.2359 46.9149C34.6445 47.6685 33.5542 47.8 32.8006 47.2086L31.5659 48.782C33.1884 50.0552 35.536 49.7721 36.8093 48.1496L35.2359 46.9149ZM37.3589 44.2096L35.2359 46.9149L36.8093 48.1496L38.9322 45.4443L37.3589 44.2096ZM40.2986 45.2454L38.7629 44.0403L37.5282 45.6136L39.0639 46.8188L40.2986 45.2454ZM39.9727 47.2807L40.468 46.6495L38.8946 45.4148L38.3993 46.0459L39.9727 47.2807ZM40.2664 49.7159C39.5128 49.1246 39.3813 48.0342 39.9727 47.2807L38.3993 46.0459C37.126 47.6685 37.4091 50.016 39.0316 51.2893L40.2664 49.7159ZM42.7016 49.4222C42.1102 50.1758 41.0199 50.3073 40.2664 49.7159L39.0316 51.2893C40.6542 52.5626 43.0017 52.2795 44.275 50.6569L42.7016 49.4222ZM43.197 48.791L42.7016 49.4222L44.275 50.6569L44.7703 50.0257L43.197 48.791ZM56.1937 57.7191L44.601 48.6217L43.3663 50.1951L54.9589 59.2924L56.1937 57.7191ZM56.7961 58.044C56.5851 57.9737 56.3813 57.8663 56.1937 57.7191L54.9589 59.2924C55.3299 59.5836 55.7382 59.7997 56.1643 59.9416L56.7961 58.044Z" fill="black" mask="url(#path-3-inside-2_113_2)"/>
</g>
<defs>
<clipPath id="clip0_113_2">
<rect width="80" height="80" fill="white"/>
</clipPath>
</defs>
</svg>
