<svg width="80" height="80" viewBox="0 0 80 80" fill="none" xmlns="http://www.w3.org/2000/svg">
<path d="M69.1134 61.3918L40.1856 46.9278L11.2578 61.3918L40.1856 75.8557L69.1134 61.3918Z" fill="#4D4D4D" stroke="#4D4D4D" stroke-miterlimit="1"/>
<path d="M69.1134 61.3918L40.1855 46.9278V18L69.1134 32.4639V61.3918Z" fill="#999999" stroke="#4D4D4D" stroke-miterlimit="1"/>
<path d="M40.1856 46.9278L11.2578 61.3918V32.4639L40.1856 18V46.9278Z" fill="#999999" stroke="#4D4D4D" stroke-miterlimit="1"/>
<path d="M40.1856 75.8557L11.2578 61.3917V32.4639L40.1856 46.9278V75.8557Z" fill="#CCCCCC" stroke="#4D4D4D" stroke-miterlimit="1"/>
<path d="M40.1855 75.8557L69.1134 61.3917V32.4639L40.1855 46.9278V75.8557Z" fill="#CCCCCC" stroke="#4D4D4D" stroke-miterlimit="1"/>
<path d="M69.1134 32.4639L40.1856 18L11.2578 32.4639L40.1856 46.9278L69.1134 32.4639Z" stroke="#4D4D4D" stroke-miterlimit="1"/>
<path d="M11.5 33L14.0632 34.5492L12.0852 39.5175L9.58792 38.5233L11.5 33Z" fill="#CCCCCC"/>
<rect x="65.5053" y="34.8805" width="3.53152" height="5.64319" transform="rotate(-27.3417 65.5053 34.8805)" fill="#CCCCCC"/>
<path d="M69.1134 32.8557L71 38.9163L44.5876 52.8557L40.1856 46.7951L35.1546 52.8557L10 38.9163L11.2577 32.8557" stroke="black"/>
<path d="M63 61.8557L46 69.8557" stroke="black"/>
<path d="M63 47.8557L46 55.8557" stroke="black"/>
<line x1="46.5" y1="55.8557" x2="46.5" y2="69.8557" stroke="black"/>
<line x1="62.5" y1="47.8557" x2="62.5" y2="61.8557" stroke="black"/>
<line x1="48.9146" y1="58.7651" x2="59.9146" y2="54.7651" stroke="black" stroke-width="0.5"/>
<line x1="48.9146" y1="64.7651" x2="59.9146" y2="60.7651" stroke="black" stroke-width="0.5"/>
<line x1="48.9146" y1="60.7651" x2="59.9146" y2="56.7651" stroke="black" stroke-width="0.5"/>
<line x1="48.9146" y1="62.7651" x2="59.9146" y2="58.7651" stroke="black" stroke-width="0.5"/>
<path d="M74.5 37.5L69 32.5" stroke="black"/>
<path d="M8.5 37.5L11 32.5" stroke="black"/>
</svg>
