<svg class="svg-icon" style="width: 50px; height: 50px;vertical-align: middle;fill: currentColor;overflow: hidden;"
     viewBox="0 0 1024 1024" version="1.1" xmlns="http://www.w3.org/2000/svg">
    <path d="M735.500307 715.181539l81.273025 0c11.211343 0 20.317745-9.087982 20.317745-20.317745l0-81.273025c0-11.211343-9.106402-20.317745-20.317745-20.317745l-81.273025 0c-11.211343 0-20.317745 9.106402-20.317745 20.317745l0 81.273025C715.181539 706.093557 724.288964 715.181539 735.500307 715.181539M207.226668 633.909537l365.727589 0c11.211343 0 20.317745-9.087982 20.317745-20.317745 0-11.211343-9.106402-20.317745-20.317745-20.317745L207.226668 593.274048c-11.211343 0-20.317745 9.106402-20.317745 20.317745C186.908924 624.820532 196.015326 633.909537 207.226668 633.909537M207.226668 715.181539l284.454564 0c11.211343 0 20.317745-9.087982 20.317745-20.317745 0-11.211343-9.106402-20.317745-20.317745-20.317745L207.226668 674.54605c-11.211343 0-20.317745 9.106402-20.317745 20.317745C186.908924 706.093557 196.015326 715.181539 207.226668 715.181539M918.364101 186.908924 105.635899 186.908924c-22.430872 0-40.636512 18.195408-40.636512 40.636512l0 568.909128c0 22.421662 18.204617 40.636512 40.636512 40.636512l812.728202 0c22.430872 0 40.636512-18.21485 40.636512-40.636512L959.000614 227.545436C959.000614 205.104331 940.794973 186.908924 918.364101 186.908924M918.364101 796.454564 105.635899 796.454564 105.635899 471.363488l812.728202 0L918.364101 796.454564zM918.364101 308.818461 105.635899 308.818461 105.635899 227.545436l812.728202 0L918.364101 308.818461z"/>
</svg>