<svg class="svg-icon" style="width: 50px; height: 50px;vertical-align: middle;fill: currentColor;overflow: hidden;"
     viewBox="0 0 1024 1024" version="1.1" xmlns="http://www.w3.org/2000/svg">
    <path d="M447.146667 853.333333c-10.24 0-17.066667 0-23.893334-3.413333l-273.066666-51.2c-10.24 0-13.653333-6.826667-13.653334-17.066667l34.133334-187.733333v-3.413333c30.72-58.026667 95.573333-78.506667 146.773333-78.506667l116.053333-116.053333c20.48-17.066667 51.2-20.48 75.093334 0l6.826666 6.826666c23.893333 23.893333 30.72 58.026667 13.653334 81.92l-68.266667 85.333334c-3.413333 3.413333-6.826667 10.24-13.653333 13.653333-6.826667 6.826667-17.066667 17.066667-17.066667 23.893333v17.066667c0 10.24 3.413333 20.48 13.653333 30.72 20.48 17.066667 54.613333 23.893333 85.333334 20.48h208.213333c6.826667 0 13.653333 3.413333 17.066667 13.653333 3.413333 6.826667 0 13.653333-6.826667 20.48l-153.6 102.4c-23.893333 23.893333-102.4 40.96-146.773333 40.96z m-273.066667-81.92l256 47.786667c27.306667 6.826667 122.88-13.653333 139.946667-30.72l109.226666-71.68h-150.186666c-37.546667 6.826667-81.92-6.826667-109.226667-27.306667-17.066667-13.653333-27.306667-34.133333-27.306667-58.026666V614.4c0-20.48 13.653333-37.546667 27.306667-47.786667 3.413333-3.413333 6.826667-6.826667 10.24-13.653333l68.266667-85.333333c6.826667-10.24 0-27.306667-10.24-40.96l-6.826667-6.826667c-10.24-6.826667-23.893333-3.413333-27.306667 3.413333l-119.466666 119.466667s-6.826667 3.413333-10.24 3.413333c-44.373333 0-98.986667 17.066667-119.466667 58.026667l-30.72 167.253333z"
          fill=""/>
    <path d="M17.066667 853.333333c-10.24 0-17.066667-10.24-17.066667-17.066666v-307.2c0-3.413333 3.413333-10.24 3.413333-13.653334 3.413333-3.413333 10.24-3.413333 13.653334-3.413333 23.893333 0 146.773333 3.413333 180.906666 37.546667 6.826667 3.413333 6.826667 10.24 6.826667 13.653333-10.24 109.226667-34.133333 221.866667-34.133333 225.28 0 3.413333-3.413333 6.826667-6.826667 10.24-3.413333 3.413333-88.746667 54.613333-146.773333 54.613333z m17.066666-307.2v269.653334c34.133333-6.826667 81.92-30.72 105.813334-44.373334 6.826667-23.893333 23.893333-116.053333 30.72-204.8-27.306667-10.24-88.746667-17.066667-136.533334-20.48zM665.6 512c-44.373333 0-81.92-23.893333-85.333333-54.613333 0-10.24 6.826667-17.066667 13.653333-17.066667 10.24 0 17.066667 6.826667 17.066667 13.653333 0 10.24 23.893333 23.893333 51.2 23.893334s51.2-13.653333 51.2-27.306667c0-6.826667-10.24-20.48-51.2-23.893333h-3.413334c-23.893333-3.413333-81.92-13.653333-81.92-58.026667 0-34.133333 37.546667-61.44 85.333334-61.44 44.373333 0 81.92 23.893333 85.333333 54.613333 0 10.24-6.826667 17.066667-13.653333 17.066667-10.24 0-17.066667-6.826667-17.066667-13.653333 0-10.24-23.893333-23.893333-51.2-23.893334s-51.2 13.653333-51.2 27.306667c0 6.826667 10.24 20.48 51.2 23.893333h3.413333c23.893333 3.413333 81.92 13.653333 81.92 58.026667 0 34.133333-37.546667 61.44-85.333333 61.44z"
          fill=""/>
    <path d="M665.6 546.133333c-10.24 0-17.066667-6.826667-17.066667-17.066666v-238.933334c0-10.24 6.826667-17.066667 17.066667-17.066666s17.066667 6.826667 17.066667 17.066666v238.933334c0 6.826667-6.826667 17.066667-17.066667 17.066666zM904.533333 273.066667h-68.266666c-10.24 0-17.066667-10.24-17.066667-17.066667s6.826667-17.066667 17.066667-17.066667h68.266666c10.24 0 17.066667 6.826667 17.066667 17.066667s-6.826667 17.066667-17.066667 17.066667z"
          fill=""/>
    <path d="M1006.933333 648.533333h-477.866666c-10.24 0-17.066667-6.826667-17.066667-17.066666s6.826667-17.066667 17.066667-17.066667H989.866667V204.8H341.333333v187.733333c0 10.24-6.826667 17.066667-17.066666 17.066667s-17.066667-10.24-17.066667-17.066667v-204.8c0-10.24 6.826667-17.066667 17.066667-17.066666h682.666666c10.24 0 17.066667 6.826667 17.066667 17.066666v443.733334c0 6.826667-6.826667 17.066667-17.066667 17.066666z"
          fill=""/>
</svg>