<svg width="30" height="30" viewBox="0 0 30 30" fill="none" xmlns="http://www.w3.org/2000/svg">
<g clip-path="url(#clip0_3_76)">
<path fill-rule="evenodd" clip-rule="evenodd" d="M13.485 0.448228C5.51407 1.21915 -0.32269 8.30583 0.448234 16.2768C1.21916 24.2477 8.30584 30.0845 16.2768 29.3135C24.2477 28.5426 30.0845 21.4559 29.3135 13.485C29.2684 13.0184 29.2016 12.5591 29.1143 12.108C28.6158 16.8009 24.8781 20.6559 19.9973 21.1279C14.4177 21.6676 9.45701 17.5818 8.91736 12.0022C8.37771 6.42253 12.4634 1.46185 18.0431 0.922204C18.2531 0.90189 18.4623 0.888132 18.6704 0.880759C17.028 0.435903 15.2789 0.274729 13.485 0.448228Z" fill="#FFFCFC"/>
</g>
<defs>
<clipPath id="clip0_3_76">
<rect width="30" height="30" fill="white"/>
</clipPath>
</defs>
</svg>
