<svg width="30" height="30" viewBox="0 0 30 30" fill="none" xmlns="http://www.w3.org/2000/svg">
<path fill-rule="evenodd" clip-rule="evenodd" d="M13.2787 1.47541C13.2787 0.660564 13.9393 0 14.7541 0C15.5689 0 16.2295 0.660564 16.2295 1.47541V6.02459C16.2295 6.83944 15.5689 7.5 14.7541 7.5C13.9393 7.5 13.2787 6.83944 13.2787 6.02459V1.47541ZM20.6557 15C20.6557 18.0376 18.2337 20.5 15.2459 20.5C12.2581 20.5 9.83606 18.0376 9.83606 15C9.83606 11.9624 12.2581 9.50001 15.2459 9.50001C18.2337 9.50001 20.6557 11.9624 20.6557 15ZM25.44 4.06065C24.8638 3.47487 23.9296 3.47487 23.3534 4.06065L20.2236 7.24263C19.6474 7.82842 19.6474 8.77817 20.2236 9.36396C20.7998 9.94974 21.734 9.94974 22.3102 9.36396L25.44 6.18197C26.0162 5.59619 26.0162 4.64644 25.44 4.06065ZM7.61571 20.0607C8.19189 19.4749 9.12607 19.4749 9.70225 20.0607C10.2784 20.6464 10.2784 21.5962 9.70225 22.182L6.57244 25.364C5.99625 25.9497 5.06208 25.9497 4.48589 25.364C3.90971 24.7782 3.90971 23.8284 4.48589 23.2426L7.61571 20.0607ZM30 14.5C30 13.6716 29.3284 13 28.5 13H24.1229C23.2945 13 22.6229 13.6716 22.6229 14.5C22.6229 15.3284 23.2945 16 24.1229 16H28.5C29.3284 16 30 15.3284 30 14.5ZM25.44 23.7426C26.0161 24.3284 26.0161 25.2782 25.44 25.864C24.8638 26.4497 23.9296 26.4497 23.3534 25.864L20.2236 22.682C19.6474 22.0962 19.6474 21.1464 20.2236 20.5607C20.7998 19.9749 21.734 19.9749 22.3101 20.5607L25.44 23.7426ZM9.70226 9.86396C10.2784 9.27818 10.2784 8.32843 9.70226 7.74264L6.57244 4.56066C5.99626 3.97488 5.06208 3.97488 4.48589 4.56066C3.90971 5.14645 3.90971 6.0962 4.48589 6.68198L7.61571 9.86396C8.1919 10.4497 9.12607 10.4497 9.70226 9.86396ZM16.2295 28.5246C16.2295 29.3394 15.5689 30 14.7541 30C13.9393 30 13.2787 29.3394 13.2787 28.5246V23.9754C13.2787 23.1606 13.9393 22.5 14.7541 22.5C15.5689 22.5 16.2295 23.1606 16.2295 23.9754V28.5246ZM0 15C0 15.8284 0.671574 16.5 1.5 16.5H5.87705C6.70548 16.5 7.37705 15.8284 7.37705 15C7.37705 14.1716 6.70548 13.5 5.87705 13.5H1.5C0.671573 13.5 0 14.1716 0 15Z" fill="#0B0B0A"/>
</svg>
