<svg width="45" height="45" viewBox="0 0 45 45" fill="none" xmlns="http://www.w3.org/2000/svg">
<circle cx="9.5" cy="32" r="2.5" stroke="currentColor"/>
<circle cx="37.5" cy="33" r="2.5" stroke="currentColor"/>
<path fill-rule="evenodd" clip-rule="evenodd" d="M3.84141 30C3.62031 30.6256 3.5 31.2987 3.5 32C3.5 35.3137 6.18629 38 9.5 38C12.8137 38 15.5 35.3137 15.5 32C15.5 31.2987 15.3797 30.6256 15.1586 30H14.084C14.3516 30.6125 14.5 31.2889 14.5 32C14.5 34.7614 12.2614 37 9.5 37C6.73858 37 4.5 34.7614 4.5 32C4.5 31.2889 4.64845 30.6125 4.91604 30H3.84141Z" fill="currentColor"/>
<path fill-rule="evenodd" clip-rule="evenodd" d="M31.5 33C31.5 36.3137 34.1863 39 37.5 39C40.8137 39 43.5 36.3137 43.5 33C43.5 32.2987 43.3797 31.6256 43.1586 31H42.084C42.3516 31.6125 42.5 32.2889 42.5 33C42.5 35.7614 40.2614 38 37.5 38C34.7386 38 32.5 35.7614 32.5 33H31.5Z" fill="currentColor"/>
<rect x="2" y="6.5" width="12" height="5" rx="0.5" stroke="currentColor"/>
<rect x="2" y="12.5" width="12" height="5" rx="0.5" stroke="currentColor"/>
<path fill-rule="evenodd" clip-rule="evenodd" d="M31.8536 12.6464L31.635 12.4279L31.3419 12.5257L29.8419 13.0257L28.4189 13.5H24H23.5H23.2929L23.1464 13.6464L22.6464 14.1464L22.5 14.2929V14.5V15V15.2071L22.6464 15.3536L23.1464 15.8536L23.5 16.2071L23.8536 15.8536L24.2071 15.5H24.382L25 15.809V16V16.5H25.5H26H26.5V17.5V17.5561L26.5124 17.6108L28.9806 28.4705C28.9008 28.6882 28.7841 28.9614 28.6537 29.1888C28.5739 29.328 28.5016 29.4277 28.4444 29.4861C28.4391 29.4914 28.4344 29.496 28.4302 29.5H28.4288H28.4257H28.4225H28.4193H28.4161H28.4128H28.4095H28.4062H28.4029H28.3995H28.3962H28.3927H28.3893H28.3858H28.3823H28.3788H28.3752H28.3717H28.3681H28.3644H28.3608H28.3571H28.3534H28.3496H28.3459H28.3421H28.3382H28.3344H28.3305H28.3266H28.3227H28.3188H28.3148H28.3108H28.3068H28.3027H28.2987H28.2946H28.2904H28.2863H28.2821H28.2779H28.2737H28.2694H28.2652H28.2609H28.2566H28.2522H28.2479H28.2435H28.2391H28.2346H28.2302H28.2257H28.2212H28.2166H28.2121H28.2075H28.2029H28.1983H28.1937H28.189H28.1843H28.1796H28.1749H28.1701H28.1653H28.1605H28.1557H28.1509H28.146H28.1411H28.1362H28.1313H28.1264H28.1214H28.1164H28.1114H28.1064H28.1013H28.0962H28.0911H28.086H28.0809H28.0757H28.0706H28.0654H28.0602H28.0549H28.0497H28.0444H28.0391H28.0338H28.0285H28.0231H28.0178H28.0124H28.007H28.0016H27.9961H27.9907H27.9852H27.9797H27.9742H27.9686H27.9631H27.9575H27.9519H27.9463H27.9407H27.9351H27.9294H27.9237H27.9181H27.9123H27.9066H27.9009H27.8951H27.8894H27.8836H27.8778H27.8719H27.8661H27.8602H27.8544H27.8485H27.8426H27.8367H27.8307H27.8248H27.8188H27.8128H27.8068H27.8008H27.7948H27.7888H27.7827H27.7766H27.7706H27.7645H27.7583H27.7522H27.7461H27.7399H27.7337H27.7276H27.7214H27.7152H27.7089H27.7027H27.6965H27.6902H27.6839H27.6776H27.6713H27.665H27.6587H27.6523H27.646H27.6396H27.6332H27.6269H27.6205H27.614H27.6076H27.6012H27.5947H27.5883H27.5818H27.5753H27.5688H27.5623H27.5558H27.5493H27.5427H27.5362H27.5296H27.5231H27.5165H27.5099H27.5033H27.4967H27.49H27.4834H27.4768H27.4701H27.4635H27.4568H27.4501H27.4434H27.4367H27.43H27.4233H27.4166H27.4099H27.4031H27.3964H27.3896H27.3828H27.3761H27.3693H27.3625H27.3557H27.3489H27.3421H27.3352H27.3284H27.3216H27.3147H27.3079H27.301H27.2942H27.2873H27.2804H27.2735H27.2666H27.2597H27.2528H27.2459H27.239H27.2321H27.2251H27.2182H27.2113H27.2043H27.1973H27.1904H27.1834H27.1765H27.1695H27.1625H27.1555H27.1485H27.1415H27.1345H27.1275H27.1205H27.1135H27.1065H27.0995H27.0924H27.0854H27.0784H27.0713H27.0643H27.0573H27.0502H27.0432H27.0361H27.0291H27.022H27.0149H27.0079H27.0008H26.9937H26.9867H26.9796H26.9725H26.9654H26.9583H26.9513H26.9442H26.9371H26.93H26.9229H26.9158H26.9087H26.9016H26.8945H26.8874H26.8803H26.8732H26.8661H26.859H26.8519H26.8448H26.8377H26.8306H26.8235H26.8164H26.8093H26.8022H26.7951H26.788H26.7809H26.7738H26.7667H26.7596H26.7525H26.7454H26.7383H26.7312H26.7241H26.7171H26.71H26.7029H26.6958H26.6887H26.6816H26.6745H26.6675H26.6604H26.6533H26.6462H26.6392H26.6321H26.625H26.618H26.6109H26.6039H26.5968H26.5898H26.5827H26.5757H26.5686H26.5616H26.5546H26.5475H26.5405H26.5335H26.5265H26.5195H26.5125H26.5055H26.4985H26.4915H26.4845H26.4775H26.4705H26.4636H26.4566H26.4496H26.4427H26.4357H26.4288H26.4218H26.4149H26.408H26.4011H26.3941H26.3872H26.3803H26.3734H26.3666H26.3597H26.3528H26.3459H26.3391H26.3322H26.3254H26.3185H26.3117H26.3049H26.298H26.2912H26.2844H26.2776H26.2708H26.2641H26.2573H26.2505H26.2438H26.237H26.2303H26.2236H26.2168H26.2101H26.2034H26.1967H26.1901H26.1834H26.1767H26.1701H26.1634H26.1568H26.1502H26.1435H26.1369H26.1303H26.1238H26.1172H26.1106H26.1041H26.0975H26.091H26.0845H26.078H26.0715H26.065H26.0585H26.052H26.0456H26.0391H26.0327H26.0263H26.0199H26.0135H26.0071H26.0007H25.9944H25.988H25.9817H25.9754H25.9691H25.9628H25.9565H25.9502H25.944H25.9377H25.9315H25.9253H25.9191H25.9129H25.9067H25.9005H25.8944H25.8883H25.8821H25.876H25.8699H25.8639H25.8578H25.8518H25.8457H25.8397H25.8337H25.8277H25.8217H25.8158H25.8099H25.8039H25.798H25.7921H25.7862H25.7804H25.7745H25.7687H25.7629H25.7571H25.7513H25.7455H25.7398H25.7341H25.7283H25.7227H25.717H25.7113H25.7057H25.7H25.6944H25.6888H25.6832H25.6777H25.6721H25.6666H25.6611H25.6556H25.6502H25.6447H25.6393H25.6339H25.6285H25.6231H25.6177H25.6124H25.6071H25.6018H25.5965H25.5913H25.586H25.5808H25.5756H25.5704H25.5652H25.5601H25.555H25.5499H25.5448H25.5397H25.5347H25.5297H25.5247H25.5197H25.5147H25.5098H25.5049H25.5H19.6407C19.2483 29.256 18.7152 28.8844 18.2695 28.4886C18.0231 28.2698 17.8177 28.0562 17.6778 27.8638C17.5286 27.6585 17.5 27.5402 17.5 27.5V27.4953V27.4906V27.4859V27.4811V27.4764V27.4716V27.4668V27.462V27.4571V27.4523V27.4474V27.4426V27.4377V27.4328V27.4278V27.4229V27.4179V27.413V27.408V27.403V27.398V27.3929V27.3879V27.3828V27.3778V27.3727V27.3676V27.3624V27.3573V27.3521V27.347V27.3418V27.3366V27.3314V27.3262V27.3209V27.3157V27.3104V27.3051V27.2998V27.2945V27.2892V27.2839V27.2785V27.2732V27.2678V27.2624V27.257V27.2516V27.2461V27.2407V27.2352V27.2298V27.2243V27.2188V27.2133V27.2078V27.2022V27.1967V27.1911V27.1855V27.18V27.1744V27.1688V27.1631V27.1575V27.1519V27.1462V27.1405V27.1348V27.1292V27.1234V27.1177V27.112V27.1063V27.1005V27.0947V27.089V27.0832V27.0774V27.0716V27.0658V27.0599V27.0541V27.0483V27.0424V27.0365V27.0306V27.0247V27.0188V27.0129V27.007V27.0011V26.9951V26.9892V26.9832V26.9772V26.9712V26.9653V26.9592V26.9532V26.9472V26.9412V26.9351V26.9291V26.923V26.917V26.9109V26.9048V26.8987V26.8926V26.8865V26.8804V26.8742V26.8681V26.8619V26.8558V26.8496V26.8434V26.8373V26.8311V26.8249V26.8187V26.8124V26.8062V26.8V26.7937V26.7875V26.7812V26.775V26.7687V26.7624V26.7562V26.7499V26.7436V26.7373V26.731V26.7246V26.7183V26.712V26.7056V26.6993V26.6929V26.6866V26.6802V26.6738V26.6675V26.6611V26.6547V26.6483V26.6419V26.6355V26.6291V26.6226V26.6162V26.6098V26.6033V26.5969V26.5904V26.584V26.5775V26.5711V26.5646V26.5581V26.5516V26.5451V26.5387V26.5322V26.5257V26.5192V26.5126V26.5061V26.4996V26.4931V26.4866V26.48V26.4735V26.467V26.4604V26.4539V26.4473V26.4408V26.4342V26.4276V26.4211V26.4145V26.4079V26.4013V26.3948V26.3882V26.3816V26.375V26.3684V26.3618V26.3552V26.3486V26.342V26.3354V26.3288V26.3222V26.3156V26.3089V26.3023V26.2957V26.2891V26.2825V26.2758V26.2692V26.2626V26.2559V26.2493V26.2427V26.236V26.2294V26.2227V26.2161V26.2094V26.2028V26.1961V26.1895V26.1828V26.1762V26.1695V26.1629V26.1562V26.1496V26.1429V26.1363V26.1296V26.123V26.1163V26.1097V26.103V26.0963V26.0897V26.083V26.0764V26.0697V26.0631V26.0564V26.0497V26.0431V26.0364V26.0298V26.0231V26.0165V26.0098V26.0032V25.9965V25.9899V25.9832V25.9766V25.9699V25.9633V25.9566V25.95V25.9434V25.9367V25.9301V25.9235V25.9168V25.9102V25.9036V25.8969V25.8903V25.8837V25.8771V25.8704V25.8638V25.8572V25.8506V25.844V25.8374V25.8308V25.8242V25.8176V25.811V25.8044V25.7978V25.7912V25.7846V25.7781V25.7715V25.7649V25.7584V25.7518V25.7452V25.7387V25.7321V25.7256V25.719V25.7125V25.7059V25.6994V25.6929V25.6864V25.6798V25.6733V25.6668V25.6603V25.6538V25.6473V25.6408V25.6343V25.6278V25.6214V25.6149V25.6084V25.602V25.5955V25.5891V25.5826V25.5762V25.5697V25.5633V25.5569V25.5505V25.5441V25.5377V25.5313V25.5249V25.5185V25.5121V25.5057V25.4993V25.493V25.4866V25.4803V25.4739V25.4676V25.4613V25.455V25.4486V25.4423V25.436V25.4297V25.4235V25.4172V25.4109V25.4046V25.3984V25.3921V25.3859V25.3797V25.3734V25.3672V25.361V25.3548V25.3486V25.3424V25.3362V25.3301V25.3239V25.3178V25.3116V25.3055V25.2994V25.2932V25.2871V25.281V25.2749V25.2689V25.2628V25.2567V25.2507V25.2446V25.2386V25.2326V25.2266V25.2205V25.2146V25.2086V25.2026V25.1966V25.1907V25.1847V25.1788V25.1728V25.1669V25.161V25.1551V25.1492V25.1434V25.1375V25.1316V25.1258V25.12V25.1142V25.1083V25.1025V25.0968V25.091V25.0852V25.0795V25.0737V25.068V25.0623V25.0566V25.0509V25.0452V25.0395V25.0338V25.0282V25.0225V25.0169V25.0113V25.0057V25.0001V24.9945V24.989V24.9834V24.9779V24.9724V24.9668V24.9613V24.9559V24.9504V24.9449V24.9395V24.934V24.9286V24.9232V24.9178V24.9124V24.9071V24.9017V24.8964V24.891V24.8857V24.8804V24.8751V24.8699V24.8646V24.8594V24.8541V24.8489V24.8437V24.8385V24.8334V24.8282V24.8231V24.818V24.8128V24.8077V24.8027V24.7976V24.7925V24.7875V24.7825V24.7775V24.7725V24.7675V24.7625V24.7576V24.7527V24.7478V24.7429V24.738V24.7331V24.7283V24.7234V24.7186V24.7138V24.709V24.7043V24.6995V24.6948V24.6901V24.6854V24.6807V24.676V24.6714V24.6667V24.6621V24.6575V24.6529V24.6484V24.6438V24.6393V24.6348V24.6303V24.6258V24.6213V24.618L18.3878 22.8424L19.7773 21.916L19.8185 21.8886L19.8536 21.8536C20.045 21.6621 20.3114 21.3407 20.4774 20.9879C20.6268 20.6704 20.796 20.0889 20.3536 19.6464C20.0633 19.3562 19.6733 19.2014 19.3529 19.1166C19.0247 19.0297 18.7064 19 18.5 19H15.5H7H2H1.79289L1.64645 19.1464L1.14645 19.6464L1 19.7929V20V22V22.5H1.5H2H3.5H5H5.5H8.93845L8.87873 22.5149L6.87873 23.0149L6.79471 23.0359L6.72265 23.084L5.22265 24.084L5.18146 24.1114L5.14645 24.1464L4.14645 25.1464L4.11144 25.1815L4.08397 25.2227L3.08397 26.7227L3.06671 26.7486L3.05279 26.7764L2.55279 27.7764L2.5 27.882V28V29.5V30H3H11.5H14.3486L15.6815 30.8886L17.1464 32.3536L18.6464 33.8536L19.3536 33.1464L17.8536 31.6464L16.3536 30.1464L16.3185 30.1114L16.2774 30.084L14.7774 29.084L14.6514 29H14.5H11.5H3.5V28.118L3.93329 27.2515L4.88856 25.8185L5.81854 24.8886L7.20529 23.9641L9.06155 23.5H12H12.5V23V22V21.5H12H11.5H5.5H5H3.5H2V20.2071L2.20711 20H7H15.5H18.5C18.6269 20 18.8587 20.0203 19.0971 20.0834C19.3369 20.1468 19.5264 20.2387 19.6376 20.3449L19.6376 20.3484C19.637 20.3843 19.6228 20.4553 19.5726 20.5621C19.4795 20.7599 19.3155 20.9702 19.1791 21.113L17.7227 22.084L17.6122 22.1576L17.5528 22.2764L16.5528 24.2764L16.5 24.382V24.5V24.5039V24.5079V24.5118V24.5158V24.5198V24.5238V24.5278V24.5319V24.536V24.54V24.5442V24.5483V24.5524V24.5566V24.5608V24.565V24.5692V24.5735V24.5777V24.582V24.5863V24.5906V24.5949V24.5993V24.6037V24.6081V24.6125V24.6169V24.6213V24.6258V24.6303V24.6348V24.6393V24.6438V24.6484V24.6529V24.6575V24.6621V24.6667V24.6714V24.676V24.6807V24.6854V24.6901V24.6948V24.6995V24.7043V24.709V24.7138V24.7186V24.7234V24.7283V24.7331V24.738V24.7429V24.7478V24.7527V24.7576V24.7625V24.7675V24.7725V24.7775V24.7825V24.7875V24.7925V24.7976V24.8027V24.8077V24.8128V24.818V24.8231V24.8282V24.8334V24.8385V24.8437V24.8489V24.8541V24.8594V24.8646V24.8699V24.8751V24.8804V24.8857V24.891V24.8964V24.9017V24.9071V24.9124V24.9178V24.9232V24.9286V24.934V24.9395V24.9449V24.9504V24.9559V24.9613V24.9668V24.9724V24.9779V24.9834V24.989V24.9945V25.0001V25.0057V25.0113V25.0169V25.0225V25.0282V25.0338V25.0395V25.0452V25.0509V25.0566V25.0623V25.068V25.0737V25.0795V25.0852V25.091V25.0968V25.1025V25.1083V25.1142V25.12V25.1258V25.1316V25.1375V25.1434V25.1492V25.1551V25.161V25.1669V25.1728V25.1788V25.1847V25.1907V25.1966V25.2026V25.2086V25.2146V25.2205V25.2266V25.2326V25.2386V25.2446V25.2507V25.2567V25.2628V25.2689V25.2749V25.281V25.2871V25.2932V25.2994V25.3055V25.3116V25.3178V25.3239V25.3301V25.3362V25.3424V25.3486V25.3548V25.361V25.3672V25.3734V25.3797V25.3859V25.3921V25.3984V25.4046V25.4109V25.4172V25.4235V25.4297V25.436V25.4423V25.4486V25.455V25.4613V25.4676V25.4739V25.4803V25.4866V25.493V25.4993V25.5057V25.5121V25.5185V25.5249V25.5313V25.5377V25.5441V25.5505V25.5569V25.5633V25.5697V25.5762V25.5826V25.5891V25.5955V25.602V25.6084V25.6149V25.6214V25.6278V25.6343V25.6408V25.6473V25.6538V25.6603V25.6668V25.6733V25.6798V25.6864V25.6929V25.6994V25.7059V25.7125V25.719V25.7256V25.7321V25.7387V25.7452V25.7518V25.7584V25.7649V25.7715V25.7781V25.7846V25.7912V25.7978V25.8044V25.811V25.8176V25.8242V25.8308V25.8374V25.844V25.8506V25.8572V25.8638V25.8704V25.8771V25.8837V25.8903V25.8969V25.9036V25.9102V25.9168V25.9235V25.9301V25.9367V25.9434V25.95V25.9566V25.9633V25.9699V25.9766V25.9832V25.9899V25.9965V26.0032V26.0098V26.0165V26.0231V26.0298V26.0364V26.0431V26.0497V26.0564V26.0631V26.0697V26.0764V26.083V26.0897V26.0963V26.103V26.1097V26.1163V26.123V26.1296V26.1363V26.1429V26.1496V26.1562V26.1629V26.1695V26.1762V26.1828V26.1895V26.1961V26.2028V26.2094V26.2161V26.2227V26.2294V26.236V26.2427V26.2493V26.2559V26.2626V26.2692V26.2758V26.2825V26.2891V26.2957V26.3023V26.3089V26.3156V26.3222V26.3288V26.3354V26.342V26.3486V26.3552V26.3618V26.3684V26.375V26.3816V26.3882V26.3948V26.4013V26.4079V26.4145V26.4211V26.4276V26.4342V26.4408V26.4473V26.4539V26.4604V26.467V26.4735V26.48V26.4866V26.4931V26.4996V26.5061V26.5126V26.5192V26.5257V26.5322V26.5387V26.5451V26.5516V26.5581V26.5646V26.5711V26.5775V26.584V26.5904V26.5969V26.6033V26.6098V26.6162V26.6226V26.6291V26.6355V26.6419V26.6483V26.6547V26.6611V26.6675V26.6738V26.6802V26.6866V26.6929V26.6993V26.7056V26.712V26.7183V26.7246V26.731V26.7373V26.7436V26.7499V26.7562V26.7624V26.7687V26.775V26.7812V26.7875V26.7937V26.8V26.8062V26.8124V26.8187V26.8249V26.8311V26.8373V26.8434V26.8496V26.8558V26.8619V26.8681V26.8742V26.8804V26.8865V26.8926V26.8987V26.9048V26.9109V26.917V26.923V26.9291V26.9351V26.9412V26.9472V26.9532V26.9592V26.9653V26.9712V26.9772V26.9832V26.9892V26.9951V27.0011V27.007V27.0129V27.0188V27.0247V27.0306V27.0365V27.0424V27.0483V27.0541V27.0599V27.0658V27.0716V27.0774V27.0832V27.089V27.0947V27.1005V27.1063V27.112V27.1177V27.1234V27.1292V27.1348V27.1405V27.1462V27.1519V27.1575V27.1631V27.1688V27.1744V27.18V27.1855V27.1911V27.1967V27.2022V27.2078V27.2133V27.2188V27.2243V27.2298V27.2352V27.2407V27.2461V27.2516V27.257V27.2624V27.2678V27.2732V27.2785V27.2839V27.2892V27.2945V27.2998V27.3051V27.3104V27.3157V27.3209V27.3262V27.3314V27.3366V27.3418V27.347V27.3521V27.3573V27.3624V27.3676V27.3727V27.3778V27.3828V27.3879V27.3929V27.398V27.403V27.408V27.413V27.4179V27.4229V27.4278V27.4328V27.4377V27.4426V27.4474V27.4523V27.4571V27.462V27.4668V27.4716V27.4764V27.4811V27.4859V27.4906V27.4953V27.5C16.5 27.8599 16.6797 28.1915 16.869 28.4518C17.0677 28.7251 17.3311 28.9927 17.6055 29.2364C18.1556 29.7248 18.8075 30.1676 19.2428 30.4287L19.3615 30.5H19.5H25.5H25.5049H25.5098H25.5147H25.5197H25.5247H25.5297H25.5347H25.5397H25.5448H25.5499H25.555H25.5601H25.5652H25.5704H25.5756H25.5808H25.586H25.5913H25.5965H25.6018H25.6071H25.6124H25.6177H25.6231H25.6285H25.6339H25.6393H25.6447H25.6502H25.6556H25.6611H25.6666H25.6721H25.6777H25.6832H25.6888H25.6944H25.7H25.7057H25.7113H25.717H25.7227H25.7283H25.7341H25.7398H25.7455H25.7513H25.7571H25.7629H25.7687H25.7745H25.7804H25.7862H25.7921H25.798H25.8039H25.8099H25.8158H25.8217H25.8277H25.8337H25.8397H25.8457H25.8518H25.8578H25.8639H25.8699H25.876H25.8821H25.8883H25.8944H25.9005H25.9067H25.9129H25.9191H25.9253H25.9315H25.9377H25.944H25.9502H25.9565H25.9628H25.9691H25.9754H25.9817H25.988H25.9944H26.0007H26.0071H26.0135H26.0199H26.0263H26.0327H26.0391H26.0456H26.052H26.0585H26.065H26.0715H26.078H26.0845H26.091H26.0975H26.1041H26.1106H26.1172H26.1238H26.1303H26.1369H26.1435H26.1502H26.1568H26.1634H26.1701H26.1767H26.1834H26.1901H26.1967H26.2034H26.2101H26.2168H26.2236H26.2303H26.237H26.2438H26.2505H26.2573H26.2641H26.2708H26.2776H26.2844H26.2912H26.298H26.3049H26.3117H26.3185H26.3254H26.3322H26.3391H26.3459H26.3528H26.3597H26.3666H26.3734H26.3803H26.3872H26.3941H26.4011H26.408H26.4149H26.4218H26.4288H26.4357H26.4427H26.4496H26.4566H26.4636H26.4705H26.4775H26.4845H26.4915H26.4985H26.5055H26.5125H26.5195H26.5265H26.5335H26.5405H26.5475H26.5546H26.5616H26.5686H26.5757H26.5827H26.5898H26.5968H26.6039H26.6109H26.618H26.625H26.6321H26.6392H26.6462H26.6533H26.6604H26.6675H26.6745H26.6816H26.6887H26.6958H26.7029H26.71H26.7171H26.7241H26.7312H26.7383H26.7454H26.7525H26.7596H26.7667H26.7738H26.7809H26.788H26.7951H26.8022H26.8093H26.8164H26.8235H26.8306H26.8377H26.8448H26.8519H26.859H26.8661H26.8732H26.8803H26.8874H26.8945H26.9016H26.9087H26.9158H26.9229H26.93H26.9371H26.9442H26.9513H26.9583H26.9654H26.9725H26.9796H26.9867H26.9937H27.0008H27.0079H27.0149H27.022H27.0291H27.0361H27.0432H27.0502H27.0573H27.0643H27.0713H27.0784H27.0854H27.0924H27.0995H27.1065H27.1135H27.1205H27.1275H27.1345H27.1415H27.1485H27.1555H27.1625H27.1695H27.1765H27.1834H27.1904H27.1973H27.2043H27.2113H27.2182H27.2251H27.2321H27.239H27.2459H27.2528H27.2597H27.2666H27.2735H27.2804H27.2873H27.2942H27.301H27.3079H27.3147H27.3216H27.3284H27.3352H27.3421H27.3489H27.3557H27.3625H27.3693H27.3761H27.3828H27.3896H27.3964H27.4031H27.4099H27.4166H27.4233H27.43H27.4367H27.4434H27.4501H27.4568H27.4635H27.4701H27.4768H27.4834H27.49H27.4967H27.5033H27.5099H27.5165H27.5231H27.5296H27.5362H27.5427H27.5493H27.5558H27.5623H27.5688H27.5753H27.5818H27.5883H27.5947H27.6012H27.6076H27.614H27.6205H27.6269H27.6332H27.6396H27.646H27.6523H27.6587H27.665H27.6713H27.6776H27.6839H27.6902H27.6965H27.7027H27.7089H27.7152H27.7214H27.7276H27.7337H27.7399H27.7461H27.7522H27.7583H27.7645H27.7706H27.7766H27.7827H27.7888H27.7948H27.8008H27.8068H27.8128H27.8188H27.8248H27.8307H27.8367H27.8426H27.8485H27.8544H27.8602H27.8661H27.8719H27.8778H27.8836H27.8894H27.8951H27.9009H27.9066H27.9123H27.9181H27.9237H27.9294H27.9351H27.9407H27.9463H27.9519H27.9575H27.9631H27.9686H27.9742H27.9797H27.9852H27.9907H27.9961H28.0016H28.007H28.0124H28.0178H28.0231H28.0285H28.0338H28.0391H28.0444H28.0497H28.0549H28.0602H28.0654H28.0706H28.0757H28.0809H28.086H28.0911H28.0962H28.1013H28.1064H28.1114H28.1164H28.1214H28.1264H28.1313H28.1362H28.1411H28.146H28.1509H28.1557H28.1605H28.1653H28.1701H28.1749H28.1796H28.1843H28.189H28.1937H28.1983H28.2029H28.2075H28.2121H28.2166H28.2212H28.2257H28.2302H28.2346H28.2391H28.2435H28.2479H28.2522H28.2566H28.2609H28.2652H28.2694H28.2737H28.2779H28.2821H28.2863H28.2904H28.2946H28.2987H28.3027H28.3068H28.3108H28.3148H28.3188H28.3227H28.3266H28.3305H28.3344H28.3382H28.3421H28.3459H28.3496H28.3534H28.3571H28.3608H28.3644H28.3681H28.3717H28.3752H28.3788H28.3823H28.3858H28.3893H28.3927H28.3962H28.3995H28.4029H28.4062H28.4095H28.4128H28.4161H28.4193H28.4225H28.4257H28.4288H28.4319H28.435H28.438H28.441H28.444H28.447H28.4499H28.4528H28.4557H28.4586H28.4614H28.4642H28.4669H28.4697H28.4723H28.475H28.4777H28.4803H28.4828H28.4854H28.4879H28.4904H28.4928H28.4953H28.4976H28.5C28.8053 30.5 29.0303 30.3169 29.1588 30.1858C29.3005 30.0411 29.4219 29.8595 29.5213 29.6862C29.7219 29.3362 29.8842 28.9284 29.9743 28.6581L30.0185 28.5255L29.9876 28.3892L27.5 17.4439V16V15.5H27H26V15.191L25.7236 15.0528L24.7236 14.5528L24.618 14.5H28.5H28.5811L28.6581 14.4743L30.1581 13.9743L31.365 13.5721L31.5 13.7071V16.6396L30.3419 17.0257L29.6996 17.2397L30.0931 17.7906L32.543 21.2204L33.5137 24.6179L34.0097 27.0981L34.0901 27.5H34.5H37.5H39.4189L40.7299 27.937L41.6464 28.8536L42 29.2071V29.5H34H33.691L33.5528 29.7764L33.0528 30.7764L33.0369 30.8082L33.0257 30.8419L32.563 32.2299L31.6464 33.1464L32.3536 33.8536L33.3536 32.8536L33.437 32.7701L33.4743 32.6581L33.9631 31.1918L34.309 30.5H42.5H43V30V29V28.7929L42.8536 28.6464L42.3536 28.1464L41.3536 27.1464L41.2701 27.063L41.1581 27.0257L39.6581 26.5257L39.5811 26.5H39.5H37.5H34.9099L34.4903 24.4019L34.4863 24.3821L34.4808 24.3626L33.4808 20.8626L33.457 20.7796L33.4069 20.7094L31.3004 17.7603L32.1581 17.4743L32.5 17.3604V17V13.5V13.2929L32.3536 13.1464L31.8536 12.6464ZM28.4031 29.5221C28.4031 29.522 28.4046 29.5209 28.4076 29.5193C28.4046 29.5215 28.4031 29.5223 28.4031 29.5221ZM23.6464 14.6464L23.5 14.7929V14.7071L23.7071 14.5H23.7929L23.6464 14.6464Z" fill="currentColor"/>
<rect x="18.5" y="33" width="14" height="1" fill="currentColor"/>
</svg>
