<svg width="35" height="30" viewBox="0 0 35 30" fill="none" xmlns="http://www.w3.org/2000/svg">
<g clip-path="url(#clip0_106_74)">
<g filter="url(#filter0_d_106_74)">
<path fill-rule="evenodd" clip-rule="evenodd" d="M14 2H7C4.23858 2 2 4.23858 2 7V23C2 25.7614 4.23858 28 7 28H14V25H7C5.89543 25 5 24.1046 5 23V7C5 5.89543 5.89543 5 7 5H14V2Z" fill="currentColor"/>
</g>
<path d="M31.0607 16.0607C31.6464 15.4749 31.6464 14.5251 31.0607 13.9393L21.5147 4.3934C20.9289 3.80761 19.9792 3.80761 19.3934 4.3934C18.8076 4.97918 18.8076 5.92893 19.3934 6.51472L27.8787 15L19.3934 23.4853C18.8076 24.0711 18.8076 25.0208 19.3934 25.6066C19.9792 26.1924 20.9289 26.1924 21.5147 25.6066L31.0607 16.0607ZM10 16.5L30 16.5V13.5L10 13.5V16.5Z" fill="currentColor"/>
</g>
<defs>
<filter id="filter0_d_106_74" x="-2" y="2" width="20" height="34" filterUnits="userSpaceOnUse" color-interpolation-filters="sRGB">
<feFlood flood-opacity="0" result="BackgroundImageFix"/>
<feColorMatrix in="SourceAlpha" type="matrix" values="0 0 0 0 0 0 0 0 0 0 0 0 0 0 0 0 0 0 127 0" result="hardAlpha"/>
<feOffset dy="4"/>
<feGaussianBlur stdDeviation="2"/>
<feComposite in2="hardAlpha" operator="out"/>
<feColorMatrix type="matrix" values="0 0 0 0 0 0 0 0 0 0 0 0 0 0 0 0 0 0 0.25 0"/>
<feBlend mode="normal" in2="BackgroundImageFix" result="effect1_dropShadow_106_74"/>
<feBlend mode="normal" in="SourceGraphic" in2="effect1_dropShadow_106_74" result="shape"/>
</filter>
<clipPath id="clip0_106_74">
<rect width="34.2857" height="30" fill="white"/>
</clipPath>
</defs>
</svg>
