<svg width="45" height="45" viewBox="0 0 45 45" fill="currentColor" xmlns="http://www.w3.org/2000/svg">
<circle cx="10" cy="29" r="2.5" stroke="currentColor"/>
<circle cx="38" cy="30" r="2.5" stroke="currentColor"/>
<path fill-rule="evenodd" clip-rule="evenodd" d="M4.34141 27C4.12031 27.6256 4 28.2987 4 29C4 32.3137 6.68629 35 10 35C13.3137 35 16 32.3137 16 29C16 28.2987 15.8797 27.6256 15.6586 27H14.584C14.8516 27.6125 15 28.2889 15 29C15 31.7614 12.7614 34 10 34C7.23858 34 5 31.7614 5 29C5 28.2889 5.14845 27.6125 5.41604 27H4.34141Z" fill="currentColor"/>
<path fill-rule="evenodd" clip-rule="evenodd" d="M32 30C32 33.3137 34.6863 36 38 36C41.3137 36 44 33.3137 44 30C44 29.2987 43.8797 28.6256 43.6586 28H42.584C42.8516 28.6125 43 29.2889 43 30C43 32.7614 40.7614 35 38 35C35.2386 35 33 32.7614 33 30H32Z" fill="currentColor"/>
<rect x="2.5" y="3.5" width="12" height="5" rx="0.5" stroke="currentColor"/>
<rect x="2.5" y="9.5" width="12" height="5" rx="0.5" stroke="currentColor"/>
<path fill-rule="evenodd" clip-rule="evenodd" d="M32.3536 9.64645L32.135 9.42794L31.8419 9.52566L30.3419 10.0257L28.9189 10.5H24.5H24H23.7929L23.6464 10.6464L23.1464 11.1464L23 11.2929V11.5V12V12.2071L23.1464 12.3536L23.6464 12.8536L24 13.2071L24.3536 12.8536L24.7071 12.5H24.882L25.5 12.809V13V13.5H26H26.5H27V14.5V14.5561L27.0124 14.6108L29.4806 25.4705C29.4008 25.6882 29.2841 25.9614 29.1537 26.1888C29.0739 26.328 29.0016 26.4277 28.9444 26.4861C28.9391 26.4914 28.9344 26.496 28.9302 26.5H28.9288H28.9257H28.9225H28.9193H28.9161H28.9128H28.9095H28.9062H28.9029H28.8995H28.8962H28.8927H28.8893H28.8858H28.8823H28.8788H28.8752H28.8717H28.8681H28.8644H28.8608H28.8571H28.8534H28.8496H28.8459H28.8421H28.8382H28.8344H28.8305H28.8266H28.8227H28.8188H28.8148H28.8108H28.8068H28.8027H28.7987H28.7946H28.7904H28.7863H28.7821H28.7779H28.7737H28.7694H28.7652H28.7609H28.7566H28.7522H28.7479H28.7435H28.7391H28.7346H28.7302H28.7257H28.7212H28.7166H28.7121H28.7075H28.7029H28.6983H28.6937H28.689H28.6843H28.6796H28.6749H28.6701H28.6653H28.6605H28.6557H28.6509H28.646H28.6411H28.6362H28.6313H28.6264H28.6214H28.6164H28.6114H28.6064H28.6013H28.5962H28.5911H28.586H28.5809H28.5757H28.5706H28.5654H28.5602H28.5549H28.5497H28.5444H28.5391H28.5338H28.5285H28.5231H28.5178H28.5124H28.507H28.5016H28.4961H28.4907H28.4852H28.4797H28.4742H28.4686H28.4631H28.4575H28.4519H28.4463H28.4407H28.4351H28.4294H28.4237H28.4181H28.4123H28.4066H28.4009H28.3951H28.3894H28.3836H28.3778H28.3719H28.3661H28.3602H28.3544H28.3485H28.3426H28.3367H28.3307H28.3248H28.3188H28.3128H28.3068H28.3008H28.2948H28.2888H28.2827H28.2766H28.2706H28.2645H28.2583H28.2522H28.2461H28.2399H28.2337H28.2276H28.2214H28.2152H28.2089H28.2027H28.1965H28.1902H28.1839H28.1776H28.1713H28.165H28.1587H28.1523H28.146H28.1396H28.1332H28.1269H28.1205H28.114H28.1076H28.1012H28.0947H28.0883H28.0818H28.0753H28.0688H28.0623H28.0558H28.0493H28.0427H28.0362H28.0296H28.0231H28.0165H28.0099H28.0033H27.9967H27.99H27.9834H27.9768H27.9701H27.9635H27.9568H27.9501H27.9434H27.9367H27.93H27.9233H27.9166H27.9099H27.9031H27.8964H27.8896H27.8828H27.8761H27.8693H27.8625H27.8557H27.8489H27.8421H27.8352H27.8284H27.8216H27.8147H27.8079H27.801H27.7942H27.7873H27.7804H27.7735H27.7666H27.7597H27.7528H27.7459H27.739H27.7321H27.7251H27.7182H27.7113H27.7043H27.6973H27.6904H27.6834H27.6765H27.6695H27.6625H27.6555H27.6485H27.6415H27.6345H27.6275H27.6205H27.6135H27.6065H27.5995H27.5924H27.5854H27.5784H27.5713H27.5643H27.5573H27.5502H27.5432H27.5361H27.5291H27.522H27.5149H27.5079H27.5008H27.4937H27.4867H27.4796H27.4725H27.4654H27.4583H27.4513H27.4442H27.4371H27.43H27.4229H27.4158H27.4087H27.4016H27.3945H27.3874H27.3803H27.3732H27.3661H27.359H27.3519H27.3448H27.3377H27.3306H27.3235H27.3164H27.3093H27.3022H27.2951H27.288H27.2809H27.2738H27.2667H27.2596H27.2525H27.2454H27.2383H27.2312H27.2241H27.2171H27.21H27.2029H27.1958H27.1887H27.1816H27.1745H27.1675H27.1604H27.1533H27.1462H27.1392H27.1321H27.125H27.118H27.1109H27.1039H27.0968H27.0898H27.0827H27.0757H27.0686H27.0616H27.0546H27.0475H27.0405H27.0335H27.0265H27.0195H27.0125H27.0055H26.9985H26.9915H26.9845H26.9775H26.9705H26.9636H26.9566H26.9496H26.9427H26.9357H26.9288H26.9218H26.9149H26.908H26.9011H26.8941H26.8872H26.8803H26.8734H26.8666H26.8597H26.8528H26.8459H26.8391H26.8322H26.8254H26.8185H26.8117H26.8049H26.798H26.7912H26.7844H26.7776H26.7708H26.7641H26.7573H26.7505H26.7438H26.737H26.7303H26.7236H26.7168H26.7101H26.7034H26.6967H26.6901H26.6834H26.6767H26.6701H26.6634H26.6568H26.6502H26.6435H26.6369H26.6303H26.6238H26.6172H26.6106H26.6041H26.5975H26.591H26.5845H26.578H26.5715H26.565H26.5585H26.552H26.5456H26.5391H26.5327H26.5263H26.5199H26.5135H26.5071H26.5007H26.4944H26.488H26.4817H26.4754H26.4691H26.4628H26.4565H26.4502H26.444H26.4377H26.4315H26.4253H26.4191H26.4129H26.4067H26.4005H26.3944H26.3883H26.3821H26.376H26.3699H26.3639H26.3578H26.3518H26.3457H26.3397H26.3337H26.3277H26.3217H26.3158H26.3099H26.3039H26.298H26.2921H26.2862H26.2804H26.2745H26.2687H26.2629H26.2571H26.2513H26.2455H26.2398H26.2341H26.2283H26.2227H26.217H26.2113H26.2057H26.2H26.1944H26.1888H26.1832H26.1777H26.1721H26.1666H26.1611H26.1556H26.1502H26.1447H26.1393H26.1339H26.1285H26.1231H26.1177H26.1124H26.1071H26.1018H26.0965H26.0913H26.086H26.0808H26.0756H26.0704H26.0652H26.0601H26.055H26.0499H26.0448H26.0397H26.0347H26.0297H26.0247H26.0197H26.0147H26.0098H26.0049H26H20.1407C19.7483 26.256 19.2152 25.8844 18.7695 25.4886C18.5231 25.2698 18.3177 25.0562 18.1778 24.8638C18.0286 24.6585 18 24.5402 18 24.5V24.4953V24.4906V24.4859V24.4811V24.4764V24.4716V24.4668V24.462V24.4571V24.4523V24.4474V24.4426V24.4377V24.4328V24.4278V24.4229V24.4179V24.413V24.408V24.403V24.398V24.3929V24.3879V24.3828V24.3778V24.3727V24.3676V24.3624V24.3573V24.3521V24.347V24.3418V24.3366V24.3314V24.3262V24.3209V24.3157V24.3104V24.3051V24.2998V24.2945V24.2892V24.2839V24.2785V24.2732V24.2678V24.2624V24.257V24.2516V24.2461V24.2407V24.2352V24.2298V24.2243V24.2188V24.2133V24.2078V24.2022V24.1967V24.1911V24.1855V24.18V24.1744V24.1688V24.1631V24.1575V24.1519V24.1462V24.1405V24.1348V24.1292V24.1234V24.1177V24.112V24.1063V24.1005V24.0947V24.089V24.0832V24.0774V24.0716V24.0658V24.0599V24.0541V24.0483V24.0424V24.0365V24.0306V24.0247V24.0188V24.0129V24.007V24.0011V23.9951V23.9892V23.9832V23.9772V23.9712V23.9653V23.9592V23.9532V23.9472V23.9412V23.9351V23.9291V23.923V23.917V23.9109V23.9048V23.8987V23.8926V23.8865V23.8804V23.8742V23.8681V23.8619V23.8558V23.8496V23.8434V23.8373V23.8311V23.8249V23.8187V23.8124V23.8062V23.8V23.7937V23.7875V23.7812V23.775V23.7687V23.7624V23.7562V23.7499V23.7436V23.7373V23.731V23.7246V23.7183V23.712V23.7056V23.6993V23.6929V23.6866V23.6802V23.6738V23.6675V23.6611V23.6547V23.6483V23.6419V23.6355V23.6291V23.6226V23.6162V23.6098V23.6033V23.5969V23.5904V23.584V23.5775V23.5711V23.5646V23.5581V23.5516V23.5451V23.5387V23.5322V23.5257V23.5192V23.5126V23.5061V23.4996V23.4931V23.4866V23.48V23.4735V23.467V23.4604V23.4539V23.4473V23.4408V23.4342V23.4276V23.4211V23.4145V23.4079V23.4013V23.3948V23.3882V23.3816V23.375V23.3684V23.3618V23.3552V23.3486V23.342V23.3354V23.3288V23.3222V23.3156V23.3089V23.3023V23.2957V23.2891V23.2825V23.2758V23.2692V23.2626V23.2559V23.2493V23.2427V23.236V23.2294V23.2227V23.2161V23.2094V23.2028V23.1961V23.1895V23.1828V23.1762V23.1695V23.1629V23.1562V23.1496V23.1429V23.1363V23.1296V23.123V23.1163V23.1097V23.103V23.0963V23.0897V23.083V23.0764V23.0697V23.0631V23.0564V23.0497V23.0431V23.0364V23.0298V23.0231V23.0165V23.0098V23.0032V22.9965V22.9899V22.9832V22.9766V22.9699V22.9633V22.9566V22.95V22.9434V22.9367V22.9301V22.9235V22.9168V22.9102V22.9036V22.8969V22.8903V22.8837V22.8771V22.8704V22.8638V22.8572V22.8506V22.844V22.8374V22.8308V22.8242V22.8176V22.811V22.8044V22.7978V22.7912V22.7846V22.7781V22.7715V22.7649V22.7584V22.7518V22.7452V22.7387V22.7321V22.7256V22.719V22.7125V22.7059V22.6994V22.6929V22.6864V22.6798V22.6733V22.6668V22.6603V22.6538V22.6473V22.6408V22.6343V22.6278V22.6214V22.6149V22.6084V22.602V22.5955V22.5891V22.5826V22.5762V22.5697V22.5633V22.5569V22.5505V22.5441V22.5377V22.5313V22.5249V22.5185V22.5121V22.5057V22.4993V22.493V22.4866V22.4803V22.4739V22.4676V22.4613V22.455V22.4486V22.4423V22.436V22.4297V22.4235V22.4172V22.4109V22.4046V22.3984V22.3921V22.3859V22.3797V22.3734V22.3672V22.361V22.3548V22.3486V22.3424V22.3362V22.3301V22.3239V22.3178V22.3116V22.3055V22.2994V22.2932V22.2871V22.281V22.2749V22.2689V22.2628V22.2567V22.2507V22.2446V22.2386V22.2326V22.2266V22.2205V22.2146V22.2086V22.2026V22.1966V22.1907V22.1847V22.1788V22.1728V22.1669V22.161V22.1551V22.1492V22.1434V22.1375V22.1316V22.1258V22.12V22.1142V22.1083V22.1025V22.0968V22.091V22.0852V22.0795V22.0737V22.068V22.0623V22.0566V22.0509V22.0452V22.0395V22.0338V22.0282V22.0225V22.0169V22.0113V22.0057V22.0001V21.9945V21.989V21.9834V21.9779V21.9724V21.9668V21.9613V21.9559V21.9504V21.9449V21.9395V21.934V21.9286V21.9232V21.9178V21.9124V21.9071V21.9017V21.8964V21.891V21.8857V21.8804V21.8751V21.8699V21.8646V21.8594V21.8541V21.8489V21.8437V21.8385V21.8334V21.8282V21.8231V21.818V21.8128V21.8077V21.8027V21.7976V21.7925V21.7875V21.7825V21.7775V21.7725V21.7675V21.7625V21.7576V21.7527V21.7478V21.7429V21.738V21.7331V21.7283V21.7234V21.7186V21.7138V21.709V21.7043V21.6995V21.6948V21.6901V21.6854V21.6807V21.676V21.6714V21.6667V21.6621V21.6575V21.6529V21.6484V21.6438V21.6393V21.6348V21.6303V21.6258V21.6213V21.618L18.8878 19.8424L20.2773 18.916L20.3185 18.8886L20.3536 18.8536C20.545 18.6621 20.8114 18.3407 20.9774 17.9879C21.1268 17.6704 21.296 17.0889 20.8536 16.6464C20.5633 16.3562 20.1733 16.2014 19.8529 16.1166C19.5247 16.0297 19.2064 16 19 16H16H7.5H2.5H2.29289L2.14645 16.1464L1.64645 16.6464L1.5 16.7929V17V19V19.5H2H2.5H4H5.5H6H9.43845L9.37873 19.5149L7.37873 20.0149L7.29471 20.0359L7.22265 20.084L5.72265 21.084L5.68146 21.1114L5.64645 21.1464L4.64645 22.1464L4.61144 22.1815L4.58397 22.2227L3.58397 23.7227L3.56671 23.7486L3.55279 23.7764L3.05279 24.7764L3 24.882V25V26.5V27H3.5H12H14.8486L16.1815 27.8886L17.6464 29.3536L19.1464 30.8536L19.8536 30.1464L18.3536 28.6464L16.8536 27.1464L16.8185 27.1114L16.7774 27.084L15.2774 26.084L15.1514 26H15H12H4V25.118L4.43329 24.2515L5.38856 22.8185L6.31854 21.8886L7.70529 20.9641L9.56155 20.5H12.5H13V20V19V18.5H12.5H12H6H5.5H4H2.5V17.2071L2.70711 17H7.5H16H19C19.1269 17 19.3587 17.0203 19.5971 17.0834C19.8369 17.1468 20.0264 17.2387 20.1376 17.3449L20.1376 17.3484C20.137 17.3843 20.1228 17.4553 20.0726 17.5621C19.9795 17.7599 19.8155 17.9702 19.6791 18.113L18.2227 19.084L18.1122 19.1576L18.0528 19.2764L17.0528 21.2764L17 21.382V21.5V21.5039V21.5079V21.5118V21.5158V21.5198V21.5238V21.5278V21.5319V21.536V21.54V21.5442V21.5483V21.5524V21.5566V21.5608V21.565V21.5692V21.5735V21.5777V21.582V21.5863V21.5906V21.5949V21.5993V21.6037V21.6081V21.6125V21.6169V21.6213V21.6258V21.6303V21.6348V21.6393V21.6438V21.6484V21.6529V21.6575V21.6621V21.6667V21.6714V21.676V21.6807V21.6854V21.6901V21.6948V21.6995V21.7043V21.709V21.7138V21.7186V21.7234V21.7283V21.7331V21.738V21.7429V21.7478V21.7527V21.7576V21.7625V21.7675V21.7725V21.7775V21.7825V21.7875V21.7925V21.7976V21.8027V21.8077V21.8128V21.818V21.8231V21.8282V21.8334V21.8385V21.8437V21.8489V21.8541V21.8594V21.8646V21.8699V21.8751V21.8804V21.8857V21.891V21.8964V21.9017V21.9071V21.9124V21.9178V21.9232V21.9286V21.934V21.9395V21.9449V21.9504V21.9559V21.9613V21.9668V21.9724V21.9779V21.9834V21.989V21.9945V22.0001V22.0057V22.0113V22.0169V22.0225V22.0282V22.0338V22.0395V22.0452V22.0509V22.0566V22.0623V22.068V22.0737V22.0795V22.0852V22.091V22.0968V22.1025V22.1083V22.1142V22.12V22.1258V22.1316V22.1375V22.1434V22.1492V22.1551V22.161V22.1669V22.1728V22.1788V22.1847V22.1907V22.1966V22.2026V22.2086V22.2146V22.2205V22.2266V22.2326V22.2386V22.2446V22.2507V22.2567V22.2628V22.2689V22.2749V22.281V22.2871V22.2932V22.2994V22.3055V22.3116V22.3178V22.3239V22.3301V22.3362V22.3424V22.3486V22.3548V22.361V22.3672V22.3734V22.3797V22.3859V22.3921V22.3984V22.4046V22.4109V22.4172V22.4235V22.4297V22.436V22.4423V22.4486V22.455V22.4613V22.4676V22.4739V22.4803V22.4866V22.493V22.4993V22.5057V22.5121V22.5185V22.5249V22.5313V22.5377V22.5441V22.5505V22.5569V22.5633V22.5697V22.5762V22.5826V22.5891V22.5955V22.602V22.6084V22.6149V22.6214V22.6278V22.6343V22.6408V22.6473V22.6538V22.6603V22.6668V22.6733V22.6798V22.6864V22.6929V22.6994V22.7059V22.7125V22.719V22.7256V22.7321V22.7387V22.7452V22.7518V22.7584V22.7649V22.7715V22.7781V22.7846V22.7912V22.7978V22.8044V22.811V22.8176V22.8242V22.8308V22.8374V22.844V22.8506V22.8572V22.8638V22.8704V22.8771V22.8837V22.8903V22.8969V22.9036V22.9102V22.9168V22.9235V22.9301V22.9367V22.9434V22.95V22.9566V22.9633V22.9699V22.9766V22.9832V22.9899V22.9965V23.0032V23.0098V23.0165V23.0231V23.0298V23.0364V23.0431V23.0497V23.0564V23.0631V23.0697V23.0764V23.083V23.0897V23.0963V23.103V23.1097V23.1163V23.123V23.1296V23.1363V23.1429V23.1496V23.1562V23.1629V23.1695V23.1762V23.1828V23.1895V23.1961V23.2028V23.2094V23.2161V23.2227V23.2294V23.236V23.2427V23.2493V23.2559V23.2626V23.2692V23.2758V23.2825V23.2891V23.2957V23.3023V23.3089V23.3156V23.3222V23.3288V23.3354V23.342V23.3486V23.3552V23.3618V23.3684V23.375V23.3816V23.3882V23.3948V23.4013V23.4079V23.4145V23.4211V23.4276V23.4342V23.4408V23.4473V23.4539V23.4604V23.467V23.4735V23.48V23.4866V23.4931V23.4996V23.5061V23.5126V23.5192V23.5257V23.5322V23.5387V23.5451V23.5516V23.5581V23.5646V23.5711V23.5775V23.584V23.5904V23.5969V23.6033V23.6098V23.6162V23.6226V23.6291V23.6355V23.6419V23.6483V23.6547V23.6611V23.6675V23.6738V23.6802V23.6866V23.6929V23.6993V23.7056V23.712V23.7183V23.7246V23.731V23.7373V23.7436V23.7499V23.7562V23.7624V23.7687V23.775V23.7812V23.7875V23.7937V23.8V23.8062V23.8124V23.8187V23.8249V23.8311V23.8373V23.8434V23.8496V23.8558V23.8619V23.8681V23.8742V23.8804V23.8865V23.8926V23.8987V23.9048V23.9109V23.917V23.923V23.9291V23.9351V23.9412V23.9472V23.9532V23.9592V23.9653V23.9712V23.9772V23.9832V23.9892V23.9951V24.0011V24.007V24.0129V24.0188V24.0247V24.0306V24.0365V24.0424V24.0483V24.0541V24.0599V24.0658V24.0716V24.0774V24.0832V24.089V24.0947V24.1005V24.1063V24.112V24.1177V24.1234V24.1292V24.1348V24.1405V24.1462V24.1519V24.1575V24.1631V24.1688V24.1744V24.18V24.1855V24.1911V24.1967V24.2022V24.2078V24.2133V24.2188V24.2243V24.2298V24.2352V24.2407V24.2461V24.2516V24.257V24.2624V24.2678V24.2732V24.2785V24.2839V24.2892V24.2945V24.2998V24.3051V24.3104V24.3157V24.3209V24.3262V24.3314V24.3366V24.3418V24.347V24.3521V24.3573V24.3624V24.3676V24.3727V24.3778V24.3828V24.3879V24.3929V24.398V24.403V24.408V24.413V24.4179V24.4229V24.4278V24.4328V24.4377V24.4426V24.4474V24.4523V24.4571V24.462V24.4668V24.4716V24.4764V24.4811V24.4859V24.4906V24.4953V24.5C17 24.8599 17.1797 25.1915 17.369 25.4518C17.5677 25.7251 17.8311 25.9927 18.1055 26.2364C18.6556 26.7248 19.3075 27.1676 19.7428 27.4287L19.8615 27.5H20H26H26.0049H26.0098H26.0147H26.0197H26.0247H26.0297H26.0347H26.0397H26.0448H26.0499H26.055H26.0601H26.0652H26.0704H26.0756H26.0808H26.086H26.0913H26.0965H26.1018H26.1071H26.1124H26.1177H26.1231H26.1285H26.1339H26.1393H26.1447H26.1502H26.1556H26.1611H26.1666H26.1721H26.1777H26.1832H26.1888H26.1944H26.2H26.2057H26.2113H26.217H26.2227H26.2283H26.2341H26.2398H26.2455H26.2513H26.2571H26.2629H26.2687H26.2745H26.2804H26.2862H26.2921H26.298H26.3039H26.3099H26.3158H26.3217H26.3277H26.3337H26.3397H26.3457H26.3518H26.3578H26.3639H26.3699H26.376H26.3821H26.3883H26.3944H26.4005H26.4067H26.4129H26.4191H26.4253H26.4315H26.4377H26.444H26.4502H26.4565H26.4628H26.4691H26.4754H26.4817H26.488H26.4944H26.5007H26.5071H26.5135H26.5199H26.5263H26.5327H26.5391H26.5456H26.552H26.5585H26.565H26.5715H26.578H26.5845H26.591H26.5975H26.6041H26.6106H26.6172H26.6238H26.6303H26.6369H26.6435H26.6502H26.6568H26.6634H26.6701H26.6767H26.6834H26.6901H26.6967H26.7034H26.7101H26.7168H26.7236H26.7303H26.737H26.7438H26.7505H26.7573H26.7641H26.7708H26.7776H26.7844H26.7912H26.798H26.8049H26.8117H26.8185H26.8254H26.8322H26.8391H26.8459H26.8528H26.8597H26.8666H26.8734H26.8803H26.8872H26.8941H26.9011H26.908H26.9149H26.9218H26.9288H26.9357H26.9427H26.9496H26.9566H26.9636H26.9705H26.9775H26.9845H26.9915H26.9985H27.0055H27.0125H27.0195H27.0265H27.0335H27.0405H27.0475H27.0546H27.0616H27.0686H27.0757H27.0827H27.0898H27.0968H27.1039H27.1109H27.118H27.125H27.1321H27.1392H27.1462H27.1533H27.1604H27.1675H27.1745H27.1816H27.1887H27.1958H27.2029H27.21H27.2171H27.2241H27.2312H27.2383H27.2454H27.2525H27.2596H27.2667H27.2738H27.2809H27.288H27.2951H27.3022H27.3093H27.3164H27.3235H27.3306H27.3377H27.3448H27.3519H27.359H27.3661H27.3732H27.3803H27.3874H27.3945H27.4016H27.4087H27.4158H27.4229H27.43H27.4371H27.4442H27.4513H27.4583H27.4654H27.4725H27.4796H27.4867H27.4937H27.5008H27.5079H27.5149H27.522H27.5291H27.5361H27.5432H27.5502H27.5573H27.5643H27.5713H27.5784H27.5854H27.5924H27.5995H27.6065H27.6135H27.6205H27.6275H27.6345H27.6415H27.6485H27.6555H27.6625H27.6695H27.6765H27.6834H27.6904H27.6973H27.7043H27.7113H27.7182H27.7251H27.7321H27.739H27.7459H27.7528H27.7597H27.7666H27.7735H27.7804H27.7873H27.7942H27.801H27.8079H27.8147H27.8216H27.8284H27.8352H27.8421H27.8489H27.8557H27.8625H27.8693H27.8761H27.8828H27.8896H27.8964H27.9031H27.9099H27.9166H27.9233H27.93H27.9367H27.9434H27.9501H27.9568H27.9635H27.9701H27.9768H27.9834H27.99H27.9967H28.0033H28.0099H28.0165H28.0231H28.0296H28.0362H28.0427H28.0493H28.0558H28.0623H28.0688H28.0753H28.0818H28.0883H28.0947H28.1012H28.1076H28.114H28.1205H28.1269H28.1332H28.1396H28.146H28.1523H28.1587H28.165H28.1713H28.1776H28.1839H28.1902H28.1965H28.2027H28.2089H28.2152H28.2214H28.2276H28.2337H28.2399H28.2461H28.2522H28.2583H28.2645H28.2706H28.2766H28.2827H28.2888H28.2948H28.3008H28.3068H28.3128H28.3188H28.3248H28.3307H28.3367H28.3426H28.3485H28.3544H28.3602H28.3661H28.3719H28.3778H28.3836H28.3894H28.3951H28.4009H28.4066H28.4123H28.4181H28.4237H28.4294H28.4351H28.4407H28.4463H28.4519H28.4575H28.4631H28.4686H28.4742H28.4797H28.4852H28.4907H28.4961H28.5016H28.507H28.5124H28.5178H28.5231H28.5285H28.5338H28.5391H28.5444H28.5497H28.5549H28.5602H28.5654H28.5706H28.5757H28.5809H28.586H28.5911H28.5962H28.6013H28.6064H28.6114H28.6164H28.6214H28.6264H28.6313H28.6362H28.6411H28.646H28.6509H28.6557H28.6605H28.6653H28.6701H28.6749H28.6796H28.6843H28.689H28.6937H28.6983H28.7029H28.7075H28.7121H28.7166H28.7212H28.7257H28.7302H28.7346H28.7391H28.7435H28.7479H28.7522H28.7566H28.7609H28.7652H28.7694H28.7737H28.7779H28.7821H28.7863H28.7904H28.7946H28.7987H28.8027H28.8068H28.8108H28.8148H28.8188H28.8227H28.8266H28.8305H28.8344H28.8382H28.8421H28.8459H28.8496H28.8534H28.8571H28.8608H28.8644H28.8681H28.8717H28.8752H28.8788H28.8823H28.8858H28.8893H28.8927H28.8962H28.8995H28.9029H28.9062H28.9095H28.9128H28.9161H28.9193H28.9225H28.9257H28.9288H28.9319H28.935H28.938H28.941H28.944H28.947H28.9499H28.9528H28.9557H28.9586H28.9614H28.9642H28.9669H28.9697H28.9723H28.975H28.9777H28.9803H28.9828H28.9854H28.9879H28.9904H28.9928H28.9953H28.9976H29C29.3053 27.5 29.5303 27.3169 29.6588 27.1858C29.8005 27.0411 29.9219 26.8595 30.0213 26.6862C30.2219 26.3362 30.3842 25.9284 30.4743 25.6581L30.5185 25.5255L30.4876 25.3892L28 14.4439V13V12.5H27.5H26.5V12.191L26.2236 12.0528L25.2236 11.5528L25.118 11.5H29H29.0811L29.1581 11.4743L30.6581 10.9743L31.865 10.5721L32 10.7071V13.6396L30.8419 14.0257L30.1996 14.2397L30.5931 14.7906L33.043 18.2204L34.0137 21.6179L34.5097 24.0981L34.5901 24.5H35H38H39.9189L41.2299 24.937L42.1464 25.8536L42.5 26.2071V26.5H34.5H34.191L34.0528 26.7764L33.5528 27.7764L33.5369 27.8082L33.5257 27.8419L33.063 29.2299L32.1464 30.1464L32.8536 30.8536L33.8536 29.8536L33.937 29.7701L33.9743 29.6581L34.4631 28.1918L34.809 27.5H43H43.5V27V26V25.7929L43.3536 25.6464L42.8536 25.1464L41.8536 24.1464L41.7701 24.063L41.6581 24.0257L40.1581 23.5257L40.0811 23.5H40H38H35.4099L34.9903 21.4019L34.9863 21.3821L34.9808 21.3626L33.9808 17.8626L33.957 17.7796L33.9069 17.7094L31.8004 14.7603L32.6581 14.4743L33 14.3604V14V10.5V10.2929L32.8536 10.1464L32.3536 9.64645ZM28.9031 26.5221C28.9031 26.522 28.9046 26.5209 28.9076 26.5193C28.9046 26.5215 28.9031 26.5223 28.9031 26.5221ZM24.1464 11.6464L24 11.7929V11.7071L24.2071 11.5H24.2929L24.1464 11.6464Z" fill="currentColor"/>
<rect x="19" y="30" width="14" height="1" fill="currentColor"/>
</svg>

