<svg width="30" height="30" viewBox="0 0 30 30" fill="none" xmlns="http://www.w3.org/2000/svg">
<path d="M26.5497 2H3.36249C2.14262 2 1 2.97332 1 4.17101C1 5.3687 2.14262 6.34202 3.36249 6.34202H3.52342V28.1374L4.34418 27.3316H4.4343L6.8322 24.9773L9.44574 27.5433L9.4908 27.4991L9.57127 27.5781L12.1816 25.0152L14.7919 27.5781L14.8724 27.4991L14.9529 27.5781L17.5632 25.0152L20.1735 27.5781L20.254 27.4991L20.299 27.5433L22.9126 24.9773L25.3105 27.3316H25.4006L26.2213 28.1374V6.34202H26.5529C27.7727 6.34202 28.7641 5.3687 28.7641 4.17101C28.7641 2.97332 27.7695 2 26.5497 2ZM26.7396 5.08429H26.2181V3.26405H24.9629V5.27389H24.9596V25.1511L22.9576 23.1855L22.9126 23.2298L22.8675 23.1855L20.254 25.7515L17.6436 23.1855L17.5632 23.2645L17.4827 23.1855L14.8724 25.7484L12.2621 23.1855L12.1816 23.2645L12.1011 23.1855L9.4908 25.7515L6.87726 23.1855L6.8322 23.2298L6.78713 23.1855L4.78513 25.1511L4.79157 3.26405H3.52342V5.08429H3.05028C2.53852 5.08429 2.12331 4.67663 2.12331 4.17101C2.12331 3.66855 2.53852 3.26089 3.05028 3.26089H26.7396C27.2513 3.26089 27.6697 3.66855 27.6697 4.17101C27.6665 4.67663 27.2513 5.08429 26.7396 5.08429ZM7.66261 13.0636H14.3992C14.7308 13.0636 14.9979 12.8013 14.9979 12.4758C14.9979 12.1503 14.7308 11.888 14.3992 11.888H7.66261C7.33109 11.888 7.06394 12.1503 7.06394 12.4758C7.06394 12.8013 7.3343 13.0636 7.66261 13.0636ZM7.66261 9.35046H18.1812C18.5127 9.35046 18.7798 9.08817 18.7798 8.76268C18.7798 8.43718 18.5127 8.17489 18.1812 8.17489H7.66261C7.33109 8.17489 7.06394 8.43718 7.06394 8.76268C7.06394 9.08817 7.3343 9.35046 7.66261 9.35046ZM18.812 15.6012H7.66261C7.33109 15.6012 7.06394 15.8635 7.06394 16.189C7.06394 16.5145 7.33109 16.7768 7.66261 16.7768H18.812C19.1435 16.7768 19.4107 16.5145 19.4107 16.189C19.4107 15.8635 19.1435 15.6012 18.812 15.6012ZM17.5535 19.3144H7.66261C7.33109 19.3144 7.06394 19.5766 7.06394 19.9021C7.06394 20.2276 7.33109 20.4899 7.66261 20.4899H17.5503C17.8818 20.4899 18.149 20.2276 18.149 19.9021C18.1522 19.5766 17.8818 19.3144 17.5535 19.3144Z" fill="currentColor"/>
</svg>
