<svg width="80" height="80" viewBox="0 0 80 80" fill="none" xmlns="http://www.w3.org/2000/svg">
<rect x="0.604603" y="0.363196" width="50.8436" height="37.482" transform="matrix(0.969652 -0.244491 0.239554 0.970883 10.6188 23.8337)" fill="#D9D9D9" stroke="black"/>
<rect x="0.604603" y="0.363196" width="50.8436" height="37.482" transform="matrix(0.969652 -0.244491 0.239554 0.970883 10.0563 25.5396)" fill="#D9D9D9" stroke="black"/>
<rect x="11.1875" y="21.1667" width="55.8125" height="47.3333" rx="4.5" fill="#D9D9D9" stroke="black"/>
<rect x="9.5" y="21.1667" width="55.8125" height="47.3333" rx="4.5" fill="#D9D9D9" stroke="black"/>
<rect x="51.6875" y="35.3824" width="19.8125" height="18.902" rx="4.5" fill="#D9D9D9" stroke="black"/>
<path d="M58.5625 44.8333C58.5625 45.6615 57.8998 46.3235 57.0938 46.3235C56.2877 46.3235 55.625 45.6615 55.625 44.8333C55.625 44.0052 56.2877 43.3431 57.0938 43.3431C57.8998 43.3431 58.5625 44.0052 58.5625 44.8333Z" fill="#D9D9D9" stroke="black"/>
</svg>
