<svg width="30" height="30" viewBox="0 0 30 30" fill="none" xmlns="http://www.w3.org/2000/svg">
<g clip-path="url(#clip0_3_73)">
<path fill-rule="evenodd" clip-rule="evenodd" d="M15.8314 10.0482C13.0597 10.298 10.8876 12.6275 10.8876 15.4642C10.8876 18.301 13.0597 20.6305 15.8314 20.8802V10.0482ZM8.65561 20.468C9.23482 19.8888 10.1739 19.8888 10.7531 20.468C11.3323 21.0472 11.3323 21.9863 10.7531 22.5655L7.60688 25.7117C7.02767 26.2909 6.0886 26.2909 5.5094 25.7117C4.9302 25.1325 4.9302 24.1934 5.5094 23.6142L8.65561 20.468ZM10.7531 10.3859C11.3323 9.80673 11.3323 8.86766 10.7531 8.28846L7.60686 5.14224C7.02766 4.56304 6.08859 4.56304 5.50939 5.14224C4.93018 5.72144 4.93018 6.66052 5.50939 7.23972L8.6556 10.3859C9.2348 10.9651 10.1739 10.9651 10.7531 10.3859ZM2.48314 16.9474C1.66402 16.9474 1 16.2834 1 15.4642C1 14.6451 1.66402 13.9811 2.48314 13.9811H6.93256C7.75167 13.9811 8.4157 14.6451 8.4157 15.4642C8.4157 16.2834 7.75167 16.9474 6.93256 16.9474H2.48314Z" fill="#0B0B0A"/>
<path fill-rule="evenodd" clip-rule="evenodd" d="M17.9502 22.1476C18.8384 22.811 19.8762 23.3041 21.0262 23.5676C25.4451 24.5801 29.8481 21.8187 30.8606 17.3998C30.9198 17.1411 30.9662 16.8825 31 16.6246C29.8924 19.0558 27.1951 20.4572 24.4893 19.8373C21.3961 19.1285 19.4631 16.0464 20.1719 12.9532C20.8806 9.86 23.9627 7.92701 27.0559 8.63575C27.1724 8.66243 27.2872 8.69247 27.4002 8.72575C26.5978 8.19291 25.6872 7.79332 24.6928 7.56546C22.2505 7.00586 19.813 7.59908 17.9502 8.98781V22.1476Z" fill="#0B0B0A"/>
<rect x="15" width="3" height="30" rx="1.5" fill="#0B0B0A"/>
<rect x="16" y="10" width="2" height="10" rx="1" fill="#FBFBF5"/>
</g>
<defs>
<clipPath id="clip0_3_73">
<rect width="30" height="30" fill="white"/>
</clipPath>
</defs>
</svg>
