<?xml version="1.0" encoding="utf-8"?>
<svg width="1em" height="1em" viewBox="0 0 500 500" xmlns="http://www.w3.org/2000/svg">
  <defs>
    <clipPath id="clip0_131_1275">
      <rect width="666.667" height="539.587" fill="white"/>
    </clipPath>
  </defs>
  <g clip-path="url(#clip0_131_1275)" transform="matrix(0.746945, 0, 0, 0.746945, 6.954614, -2.784905)" style="">
    <path d="M134.409 347V335.364H141.386V336.614H135.818V340.545H140.864V341.795H135.818V347H134.409ZM146.523 347.182C145.735 347.182 145.044 346.994 144.449 346.619C143.858 346.244 143.396 345.72 143.062 345.045C142.733 344.371 142.568 343.583 142.568 342.682C142.568 341.773 142.733 340.979 143.062 340.301C143.396 339.623 143.858 339.097 144.449 338.722C145.044 338.347 145.735 338.159 146.523 338.159C147.311 338.159 148 338.347 148.591 338.722C149.186 339.097 149.648 339.623 149.977 340.301C150.311 340.979 150.477 341.773 150.477 342.682C150.477 343.583 150.311 344.371 149.977 345.045C149.648 345.72 149.186 346.244 148.591 346.619C148 346.994 147.311 347.182 146.523 347.182ZM146.523 345.977C147.121 345.977 147.614 345.824 148 345.517C148.386 345.21 148.672 344.807 148.858 344.307C149.044 343.807 149.136 343.265 149.136 342.682C149.136 342.098 149.044 341.555 148.858 341.051C148.672 340.547 148.386 340.14 148 339.83C147.614 339.519 147.121 339.364 146.523 339.364C145.924 339.364 145.432 339.519 145.045 339.83C144.659 340.14 144.373 340.547 144.188 341.051C144.002 341.555 143.909 342.098 143.909 342.682C143.909 343.265 144.002 343.807 144.188 344.307C144.373 344.807 144.659 345.21 145.045 345.517C145.432 345.824 145.924 345.977 146.523 345.977ZM156.07 347.182C155.282 347.182 154.59 346.994 153.996 346.619C153.405 346.244 152.943 345.72 152.609 345.045C152.28 344.371 152.115 343.583 152.115 342.682C152.115 341.773 152.28 340.979 152.609 340.301C152.943 339.623 153.405 339.097 153.996 338.722C154.59 338.347 155.282 338.159 156.07 338.159C156.857 338.159 157.547 338.347 158.138 338.722C158.732 339.097 159.195 339.623 159.524 340.301C159.857 340.979 160.024 341.773 160.024 342.682C160.024 343.583 159.857 344.371 159.524 345.045C159.195 345.72 158.732 346.244 158.138 346.619C157.547 346.994 156.857 347.182 156.07 347.182ZM156.07 345.977C156.668 345.977 157.161 345.824 157.547 345.517C157.933 345.21 158.219 344.807 158.405 344.307C158.59 343.807 158.683 343.265 158.683 342.682C158.683 342.098 158.59 341.555 158.405 341.051C158.219 340.547 157.933 340.14 157.547 339.83C157.161 339.519 156.668 339.364 156.07 339.364C155.471 339.364 154.979 339.519 154.592 339.83C154.206 340.14 153.92 340.547 153.734 341.051C153.549 341.555 153.456 342.098 153.456 342.682C153.456 343.265 153.549 343.807 153.734 344.307C153.92 344.807 154.206 345.21 154.592 345.517C154.979 345.824 155.471 345.977 156.07 345.977ZM165.366 347.182C164.639 347.182 163.997 346.998 163.44 346.631C162.884 346.259 162.448 345.737 162.134 345.062C161.819 344.384 161.662 343.583 161.662 342.659C161.662 341.742 161.819 340.947 162.134 340.273C162.448 339.598 162.885 339.078 163.446 338.71C164.007 338.343 164.654 338.159 165.389 338.159C165.957 338.159 166.406 338.254 166.736 338.443C167.069 338.629 167.323 338.841 167.497 339.08C167.675 339.314 167.813 339.508 167.912 339.659H168.026V335.364H169.366V347H168.071V345.659H167.912C167.813 345.818 167.673 346.019 167.491 346.261C167.31 346.5 167.05 346.714 166.713 346.903C166.376 347.089 165.927 347.182 165.366 347.182ZM165.548 345.977C166.086 345.977 166.541 345.837 166.912 345.557C167.283 345.273 167.565 344.881 167.759 344.381C167.952 343.877 168.048 343.295 168.048 342.636C168.048 341.985 167.954 341.415 167.764 340.926C167.575 340.434 167.295 340.051 166.923 339.778C166.552 339.502 166.094 339.364 165.548 339.364C164.98 339.364 164.507 339.509 164.128 339.801C163.753 340.089 163.471 340.481 163.281 340.977C163.096 341.47 163.003 342.023 163.003 342.636C163.003 343.258 163.098 343.822 163.287 344.33C163.48 344.833 163.764 345.235 164.139 345.534C164.518 345.83 164.988 345.977 165.548 345.977ZM175.781 347H172.19V335.364H175.94C177.069 335.364 178.035 335.597 178.838 336.062C179.641 336.525 180.257 337.189 180.685 338.057C181.113 338.92 181.327 339.955 181.327 341.159C181.327 342.371 181.111 343.415 180.679 344.29C180.247 345.161 179.618 345.831 178.793 346.301C177.967 346.767 176.963 347 175.781 347ZM173.599 345.75H175.69C176.652 345.75 177.45 345.564 178.082 345.193C178.715 344.822 179.187 344.294 179.497 343.608C179.808 342.922 179.963 342.106 179.963 341.159C179.963 340.22 179.81 339.411 179.503 338.733C179.196 338.051 178.738 337.528 178.128 337.165C177.518 336.797 176.759 336.614 175.849 336.614H173.599V345.75ZM187.168 347.182C186.327 347.182 185.601 346.996 184.991 346.625C184.385 346.25 183.918 345.727 183.588 345.057C183.262 344.383 183.099 343.598 183.099 342.705C183.099 341.811 183.262 341.023 183.588 340.341C183.918 339.655 184.376 339.121 184.963 338.739C185.554 338.352 186.243 338.159 187.031 338.159C187.486 338.159 187.935 338.235 188.378 338.386C188.821 338.538 189.224 338.784 189.588 339.125C189.952 339.462 190.241 339.909 190.457 340.466C190.673 341.023 190.781 341.708 190.781 342.523V343.091H184.054V341.932H189.418C189.418 341.439 189.319 341 189.122 340.614C188.929 340.227 188.652 339.922 188.293 339.699C187.937 339.475 187.516 339.364 187.031 339.364C186.497 339.364 186.035 339.496 185.645 339.761C185.259 340.023 184.961 340.364 184.753 340.784C184.545 341.205 184.44 341.655 184.44 342.136V342.909C184.44 343.568 184.554 344.127 184.781 344.585C185.012 345.04 185.332 345.386 185.741 345.625C186.151 345.86 186.626 345.977 187.168 345.977C187.52 345.977 187.838 345.928 188.122 345.83C188.41 345.727 188.658 345.576 188.866 345.375C189.075 345.17 189.236 344.917 189.349 344.614L190.645 344.977C190.509 345.417 190.279 345.803 189.957 346.136C189.635 346.466 189.238 346.723 188.764 346.909C188.291 347.091 187.759 347.182 187.168 347.182ZM194.162 335.364V347H192.821V335.364H194.162ZM196.618 347V338.273H197.959V347H196.618ZM197.3 336.818C197.038 336.818 196.813 336.729 196.624 336.551C196.438 336.373 196.345 336.159 196.345 335.909C196.345 335.659 196.438 335.445 196.624 335.267C196.813 335.089 197.038 335 197.3 335C197.561 335 197.785 335.089 197.97 335.267C198.16 335.445 198.254 335.659 198.254 335.909C198.254 336.159 198.16 336.373 197.97 336.551C197.785 336.729 197.561 336.818 197.3 336.818ZM207.551 338.273L204.324 347H202.96L199.733 338.273H201.188L203.597 345.227H203.688L206.097 338.273H207.551ZM212.668 347.182C211.827 347.182 211.101 346.996 210.491 346.625C209.885 346.25 209.418 345.727 209.088 345.057C208.762 344.383 208.599 343.598 208.599 342.705C208.599 341.811 208.762 341.023 209.088 340.341C209.418 339.655 209.876 339.121 210.463 338.739C211.054 338.352 211.743 338.159 212.531 338.159C212.986 338.159 213.435 338.235 213.878 338.386C214.321 338.538 214.724 338.784 215.088 339.125C215.452 339.462 215.741 339.909 215.957 340.466C216.173 341.023 216.281 341.708 216.281 342.523V343.091H209.554V341.932H214.918C214.918 341.439 214.819 341 214.622 340.614C214.429 340.227 214.152 339.922 213.793 339.699C213.437 339.475 213.016 339.364 212.531 339.364C211.997 339.364 211.535 339.496 211.145 339.761C210.759 340.023 210.461 340.364 210.253 340.784C210.045 341.205 209.94 341.655 209.94 342.136V342.909C209.94 343.568 210.054 344.127 210.281 344.585C210.512 345.04 210.832 345.386 211.241 345.625C211.651 345.86 212.126 345.977 212.668 345.977C213.02 345.977 213.338 345.928 213.622 345.83C213.91 345.727 214.158 345.576 214.366 345.375C214.575 345.17 214.736 344.917 214.849 344.614L216.145 344.977C216.009 345.417 215.779 345.803 215.457 346.136C215.135 346.466 214.738 346.723 214.264 346.909C213.791 347.091 213.259 347.182 212.668 347.182ZM218.321 347V338.273H219.616V339.591H219.707C219.866 339.159 220.154 338.809 220.571 338.54C220.988 338.271 221.457 338.136 221.98 338.136C222.079 338.136 222.202 338.138 222.349 338.142C222.497 338.146 222.609 338.152 222.685 338.159V339.523C222.639 339.511 222.535 339.494 222.372 339.472C222.213 339.445 222.045 339.432 221.866 339.432C221.442 339.432 221.063 339.521 220.73 339.699C220.401 339.873 220.139 340.116 219.946 340.426C219.757 340.733 219.662 341.083 219.662 341.477V347H218.321ZM225.403 350.273C225.176 350.273 224.973 350.254 224.795 350.216C224.617 350.182 224.494 350.148 224.426 350.114L224.767 348.932C225.093 349.015 225.381 349.045 225.631 349.023C225.881 349 226.102 348.888 226.295 348.688C226.492 348.491 226.672 348.17 226.835 347.727L227.085 347.045L223.858 338.273H225.312L227.722 345.227H227.812L230.222 338.273H231.676L227.972 348.273C227.805 348.723 227.598 349.097 227.352 349.392C227.106 349.691 226.82 349.913 226.494 350.057C226.172 350.201 225.809 350.273 225.403 350.273Z" fill="white"/>
    <path d="M-15 462.699H651.667V462.366H-15V462.699Z" fill="var(--primary-color)"/>
    <path d="M53.8965 481.385H75.3099V481.718H53.8965V481.385Z" fill="var(--primary-color)"/>
    <path d="M212.136 478.105H283.509V477.772H212.136V478.105Z" fill="#DADBD8"/>
    <path d="M76.6433 493.772H124.976V494.105H76.6433V493.772Z" fill="var(--primary-color)"/>
    <path d="M551.321 463.854C551.323 463.853 554.52 448.601 556.36 438.21C556.392 438.029 556.271 437.857 556.089 437.824C555.908 437.791 555.735 437.913 555.703 438.094C554.785 443.281 553.527 449.687 552.497 454.797C551.983 457.351 551.525 459.582 551.197 461.174C550.869 462.765 550.669 463.715 550.669 463.718C550.632 463.898 550.747 464.075 550.927 464.113C551.107 464.15 551.284 464.036 551.321 463.855V463.854Z" fill="#DADBD8"/>
    <path d="M553.363 453.915L559.591 446.184C559.705 446.041 559.683 445.83 559.54 445.715C559.396 445.599 559.187 445.622 559.071 445.766L552.843 453.497C552.728 453.641 552.751 453.85 552.893 453.966C553.037 454.081 553.247 454.058 553.363 453.915Z" fill="#DADBD8"/>
    <path d="M509.119 91.3621C491.356 92.7635 476.644 78.0515 478.045 60.2901C479.147 46.3168 490.467 34.9968 504.44 33.8955C522.201 32.4941 536.913 47.2061 535.512 64.9675C534.411 78.9408 523.091 90.2608 509.119 91.3621ZM557.36 64.9128C557.36 36.2915 533.615 13.2168 504.749 14.3141C478.268 15.3208 456.792 37.0755 456.104 63.5675C455.84 73.7528 458.584 83.2795 463.512 91.3248C464.116 92.3101 464.759 93.2701 465.427 94.2101H465.419L465.517 94.3301C466.787 96.1061 468.172 97.7928 469.655 99.3875L500.98 137.675C503.949 141.305 509.499 141.305 512.467 137.675L543.743 99.4461C545.241 97.8408 546.633 96.1368 547.915 94.3461L548.027 94.2101H548.012C553.892 85.9381 557.36 75.8341 557.36 64.9128Z" fill="var(--inverted-secondary-color)"/>
    <path d="M51.2729 378.814C70.3823 378.814 89.4917 378.814 108.601 378.814C108.877 378.814 109.101 378.59 109.101 378.314C109.101 378.038 108.877 377.814 108.601 377.814C89.4917 377.814 70.3823 377.814 51.2729 377.814C50.9969 377.814 50.7729 378.038 50.7729 378.314C50.7729 378.59 50.9969 378.814 51.2729 378.814Z" fill="#040606"/>
    <path d="M37.4255 386.261C56.535 386.261 75.6438 386.261 94.7531 386.261C95.0293 386.261 95.2531 386.037 95.2531 385.761C95.2531 385.483 95.0293 385.261 94.7531 385.261C75.6438 385.261 56.535 385.261 37.4255 385.261C37.1495 385.261 36.9255 385.483 36.9255 385.761C36.9255 386.037 37.1495 386.261 37.4255 386.261Z" fill="#040606"/>
    <path d="M226.747 181.485C239.901 181.485 253.056 181.485 266.211 181.485C266.487 181.485 266.711 181.262 266.711 180.985C266.711 180.709 266.487 180.485 266.211 180.485C253.056 180.485 239.901 180.485 226.747 180.485C226.471 180.485 226.247 180.709 226.247 180.985C226.247 181.262 226.471 181.485 226.747 181.485Z" fill="#040606"/>
    <path d="M217.215 186.311C230.369 186.311 243.524 186.311 256.677 186.311C256.953 186.311 257.177 186.087 257.177 185.811C257.177 185.535 256.953 185.311 256.677 185.311C243.524 185.311 230.369 185.311 217.215 185.311C216.939 185.311 216.715 185.535 216.715 185.811C216.715 186.087 216.939 186.311 217.215 186.311Z" fill="#040606"/>
    <path d="M85.6137 153.858C85.6137 153.858 66.5146 177.519 56.061 179.879C56.061 179.879 66.0965 182.095 82.3637 179.879C98.6313 177.663 97.8157 175.993 97.8157 175.993L85.6137 153.858Z" fill="#2F3134"/>
    <path d="M116.774 222.525C111.22 202.998 103.549 184.082 93.8942 166.223C91.1067 161.066 88.1494 156.003 85.0437 151.033C84.3635 149.943 82.6322 150.946 83.3166 152.042C97.1005 174.103 107.729 198.034 114.846 223.055C115.197 224.291 117.128 223.766 116.774 222.525Z" fill="#17282F"/>
    <path d="M214.747 336.195H100.452C94.6797 336.195 90 331.516 90 325.743V232.452C90 226.68 94.6797 222 100.452 222H214.747C220.52 222 225.2 226.68 225.2 232.452V325.743C225.2 331.516 220.52 336.195 214.747 336.195Z" fill="#2F3134"/>
    <path d="M161.337 300.915C144.152 300.915 130.011 286.773 130.011 269.587C130.011 252.402 144.152 238.261 161.337 238.261C169.888 238.261 178.076 241.762 183.984 247.943L161.337 269.587L180.056 251.698C175.173 246.587 168.405 243.694 161.337 243.694C147.132 243.694 135.444 255.383 135.444 269.587C135.444 283.793 147.132 295.482 161.337 295.482C175.543 295.482 187.231 283.793 187.231 269.587H161.337H192.664C192.664 286.773 178.523 300.915 161.337 300.915Z" fill="#D6AC6D"/>
    <path d="M161.337 295.482C147.132 295.482 135.444 283.793 135.444 269.588C135.444 255.384 147.132 243.694 161.337 243.694C168.405 243.694 175.173 246.588 180.056 251.698L161.337 269.588H187.231C187.231 283.793 175.543 295.482 161.337 295.482Z" fill="#E5D891"/>
    <path d="M149.489 265.225C149.489 266.906 148.125 268.27 146.444 268.27C144.761 268.27 143.397 266.906 143.397 265.225C143.397 263.542 144.761 262.178 146.444 262.178C148.125 262.178 149.489 263.542 149.489 265.225Z" fill="white"/>
    <path d="M178.239 276.163C178.239 277.846 176.875 279.21 175.192 279.21C173.511 279.21 172.147 277.846 172.147 276.163C172.147 274.482 173.511 273.118 175.192 273.118C176.875 273.118 178.239 274.482 178.239 276.163Z" fill="white"/>
    <path d="M163.384 255.981C163.384 258.35 161.463 260.27 159.093 260.27C156.724 260.27 154.804 258.35 154.804 255.981C154.804 253.611 156.724 251.691 159.093 251.691C161.463 251.691 163.384 253.611 163.384 255.981Z" fill="white"/>
    <path d="M164.96 280.454C164.96 282.823 163.04 284.743 160.671 284.743C158.301 284.743 156.381 282.823 156.381 280.454C156.381 278.085 158.301 276.163 160.671 276.163C163.04 276.163 164.96 278.085 164.96 280.454Z" fill="white"/>
    <path d="M160.671 267.122C160.671 268.636 159.444 269.862 157.931 269.862C156.417 269.862 155.191 268.636 155.191 267.122C155.191 265.609 156.417 264.382 157.931 264.382C159.444 264.382 160.671 265.609 160.671 267.122Z" fill="white"/>
    <path d="M149.667 278.073C149.667 279.176 148.773 280.069 147.671 280.069C146.568 280.069 145.675 279.176 145.675 278.073C145.675 276.97 146.568 276.077 147.671 276.077C148.773 276.077 149.667 276.97 149.667 278.073Z" fill="white"/>
    <path d="M90.4103 232.552C90.2723 232.254 90.2764 231.885 90.4228 231.592C90.4144 231.761 90.4103 231.932 90.4103 232.102V232.552Z" fill="#949696"/>
    <path d="M225.611 232.55V232.102C225.611 231.932 225.607 231.761 225.597 231.59C225.744 231.884 225.748 232.253 225.611 232.55Z" fill="#949696"/>
    <path d="M224.745 233.083C215.005 233.083 205.267 233.083 195.528 233.083C160.777 233.083 126.027 233.083 91.276 233.083C90.8396 233.083 90.5511 232.854 90.4104 232.551V232.102C90.4104 231.932 90.4145 231.761 90.4229 231.592C90.5677 231.301 90.8521 231.083 91.276 231.083C101.015 231.083 110.754 231.083 120.493 231.083C155.244 231.083 189.995 231.083 224.745 231.083C225.169 231.083 225.453 231.3 225.597 231.59C225.607 231.761 225.611 231.932 225.611 232.102V232.55C225.469 232.854 225.181 233.083 224.745 233.083Z" fill="#1F2022"/>
    <path d="M229.193 335.845H108.06C105.168 335.845 102.823 338.19 102.823 341.082C102.823 343.958 105.139 346.295 108.014 346.321C120.008 346.423 148.681 346.632 149.397 346.273C149.845 346.049 154.069 351.84 158.563 357.629C163.173 363.569 168.068 369.51 169.459 368.954L176.148 391.35L245.063 365.947L229.193 335.845Z" fill="#17282F"/>
    <path d="M163.219 363.437C161.733 361.671 160.131 359.65 158.563 357.629C154.153 351.948 150.004 346.267 149.427 346.267C149.416 346.267 149.407 346.269 149.397 346.273C149.096 346.425 143.823 346.474 136.923 346.474C133.651 346.474 130.012 346.464 126.365 346.446C119.473 346.413 112.55 346.359 108.014 346.321C105.139 346.295 102.823 343.958 102.823 341.082C102.823 338.19 105.168 335.845 108.06 335.845H226.579C226.956 340.517 228.152 344.327 228.276 344.701L231.352 353.803C226.181 352.983 221.245 352.582 216.839 352.582C215.42 352.582 214.059 352.623 212.759 352.706C200.9 353.459 183.192 354.31 163.219 363.437Z" fill="#0F191D"/>
    <path d="M228.276 344.701C227.929 343.659 219.249 315.883 243.205 317.273C267.161 318.661 353.265 350.787 354.307 357.813C355.348 364.838 333.128 375.601 333.128 375.601C333.128 375.601 315.768 406.501 328.268 422.818C340.767 439.137 355.696 441.914 373.403 442.262C391.109 442.609 423.051 439.831 421.663 404.418C420.273 369.003 420.62 342.965 413.329 325.953C406.039 308.939 407.775 288.455 407.775 287.414C407.775 286.373 427.912 278.747 427.912 278.747L483.463 360.517L459.507 423.861C459.507 423.861 424.787 465.87 423.745 466.565C422.704 467.26 345.627 483.577 344.585 483.577C343.544 483.577 276.536 477.327 276.189 475.939C275.841 474.55 262.301 445.386 262.301 445.386L228.276 344.701Z" fill="#17282F"/>
    <path d="M530.849 354.875C530.849 354.875 538.921 359.025 544.708 370.143C550.496 381.261 546.841 389.638 546.841 389.638L530.849 354.875Z" fill="#406FBF"/>
    <path d="M547.624 386.789L530.849 354.875C530.849 354.875 538.921 359.025 544.708 370.143C547.263 375.05 547.977 379.423 547.98 382.778C547.98 384.358 547.823 385.711 547.624 386.789Z" fill="#C2C2C2"/>
    <path d="M276.94 486.85V491.225H267.824V497.053C267.824 497.053 321.44 499.598 323.628 497.053C325.816 494.508 330.557 483.093 330.557 483.093L276.94 486.85Z" fill="#17282F"/>
    <path d="M234.283 511.574C207.769 538.026 164.785 538.026 138.273 511.574C111.761 485.121 111.761 442.234 138.273 415.782C164.785 389.329 207.769 389.329 234.283 415.782C260.795 442.234 260.795 485.121 234.283 511.574Z" fill="#17282F"/>
    <path d="M186.277 505.205C175.625 505.205 164.975 501.15 156.847 493.042C140.905 477.136 140.6 451.538 155.928 435.26C164.383 436.597 173.568 438.06 182.935 439.555V450.922C182.935 452.754 184.423 454.238 186.259 454.238H186.28C188.115 454.238 189.604 452.754 189.604 450.922V440.621C192.817 441.136 196.045 441.651 199.245 442.163C203.9 442.909 208.513 443.649 213.019 444.37L195.672 454.41C194.085 455.33 193.547 457.361 194.469 458.943L194.471 458.945C195.079 460.017 196.197 460.618 197.348 460.618C197.899 460.618 198.457 460.481 198.971 460.191L199.017 460.165L217.479 449.467C218.949 448.625 219.531 446.831 218.891 445.312C219.313 445.379 219.737 445.448 220.159 445.514C220.175 445.517 220.192 445.519 220.208 445.522C220.299 445.537 220.392 445.551 220.481 445.566C220.489 445.567 220.488 445.567 220.495 445.569C220.517 445.572 220.536 445.574 220.557 445.578C220.633 445.59 220.707 445.602 220.783 445.614C220.792 445.615 220.797 445.617 220.808 445.618C221.057 445.658 221.301 445.698 221.551 445.737L221.552 445.738C222.375 445.869 223.201 446.002 224.013 446.131C231.192 461.503 228.423 480.355 215.708 493.042C207.581 501.15 196.929 505.205 186.277 505.205ZM186.259 473.109C184.423 473.109 182.935 474.593 182.935 476.425V497.713C182.935 499.543 184.423 501.029 186.259 501.029H186.28C188.115 501.029 189.604 499.543 189.604 497.713V476.425C189.604 474.593 188.115 473.109 186.28 473.109H186.259ZM197.347 466.666C196.203 466.666 195.089 467.257 194.472 468.314L194.471 468.315C193.545 469.906 194.081 471.943 195.672 472.873L214.156 483.57C214.68 483.873 215.252 484.017 215.816 484.017C216.964 484.017 218.081 483.422 218.696 482.36L218.701 482.351C219.62 480.765 219.077 478.737 217.488 477.821L217.479 477.815L199.017 467.118C198.491 466.813 197.915 466.666 197.347 466.666ZM175.199 466.579C174.628 466.579 174.049 466.726 173.521 467.033L155.059 477.73C153.467 478.642 152.917 480.669 153.831 482.257L153.836 482.265C154.456 483.334 155.58 483.933 156.735 483.933C157.303 483.933 157.877 483.787 158.404 483.485L176.867 472.787C178.464 471.865 179.011 469.826 178.088 468.23C177.465 467.17 176.348 466.579 175.199 466.579ZM156.735 443.265C155.58 443.265 154.456 443.862 153.836 444.931C152.917 446.517 153.461 448.546 155.051 449.462L155.059 449.467L173.521 460.165C174.049 460.473 174.627 460.619 175.197 460.619C176.339 460.619 177.451 460.033 178.069 458.979L178.088 458.945C179.007 457.36 178.464 455.331 176.875 454.414L176.867 454.41L158.404 443.713C157.877 443.409 157.303 443.265 156.735 443.265Z" fill="#6C7A7F"/>
    <path d="M186.28 454.238H186.259C184.423 454.238 182.935 452.754 182.935 450.922V439.555C185.151 439.909 187.376 440.265 189.604 440.621V450.922C189.604 452.754 188.115 454.238 186.28 454.238Z" fill="#96A1A2"/>
    <path d="M186.28 501.029H186.259C184.423 501.029 182.935 499.543 182.935 497.713V476.425C182.935 474.593 184.423 473.109 186.259 473.109H186.28C188.115 473.109 189.604 474.593 189.604 476.425V497.713C189.604 499.543 188.115 501.029 186.28 501.029Z" fill="#96A1A2"/>
    <path d="M197.348 460.618C196.197 460.618 195.079 460.017 194.471 458.945L194.469 458.943C193.547 457.361 194.085 455.33 195.672 454.41L213.019 444.37C214.999 444.687 216.959 445.001 218.891 445.312C219.531 446.831 218.949 448.625 217.479 449.467L199.017 460.165L198.971 460.191C198.457 460.481 197.899 460.618 197.348 460.618Z" fill="#96A1A2"/>
    <path d="M156.735 483.933C155.58 483.933 154.456 483.334 153.836 482.265L153.831 482.257C152.917 480.669 153.467 478.642 155.059 477.73L173.521 467.033C174.049 466.726 174.628 466.579 175.199 466.579C176.348 466.579 177.465 467.17 178.088 468.23C179.011 469.826 178.464 471.865 176.867 472.787L158.404 483.485C157.877 483.787 157.303 483.933 156.735 483.933Z" fill="#96A1A2"/>
    <path d="M215.816 484.017C215.252 484.017 214.68 483.873 214.156 483.57L195.672 472.873C194.081 471.943 193.545 469.906 194.471 468.315L194.472 468.314C195.089 467.257 196.203 466.666 197.347 466.666C197.915 466.666 198.491 466.813 199.017 467.118L217.479 477.815L217.488 477.821C219.077 478.737 219.62 480.765 218.701 482.351L218.696 482.36C218.081 483.422 216.964 484.017 215.816 484.017Z" fill="#96A1A2"/>
    <path d="M175.197 460.619C174.627 460.619 174.049 460.473 173.521 460.165L155.059 449.467L155.051 449.462C153.461 448.546 152.917 446.517 153.836 444.931C154.456 443.862 155.58 443.265 156.735 443.265C157.303 443.265 157.877 443.409 158.404 443.713L176.867 454.41L176.875 454.414C178.464 455.331 179.007 457.36 178.088 458.945L178.069 458.979C177.451 460.033 176.339 460.619 175.197 460.619Z" fill="#96A1A2"/>
    <path d="M186.28 458.089C189.371 458.089 191.876 460.59 191.876 463.674C191.876 466.757 189.371 469.257 186.28 469.257C183.189 469.257 180.683 466.757 180.683 463.673C180.683 460.59 183.189 458.089 186.28 458.089Z" fill="#17282F"/>
    <path d="M560.721 511.574C534.209 538.026 491.224 538.026 464.712 511.574C438.2 485.121 438.2 442.234 464.712 415.782C491.224 389.329 534.209 389.329 560.721 415.782C587.233 442.234 587.233 485.121 560.721 511.574Z" fill="#17282F"/>
    <path d="M512.717 505.205C502.065 505.205 491.413 501.15 483.287 493.042C467.032 476.825 467.032 450.531 483.287 434.314C491.413 426.205 502.065 422.15 512.717 422.15C523.369 422.15 534.02 426.205 542.148 434.314C558.401 450.531 558.401 476.825 542.148 493.042C534.02 501.15 523.369 505.205 512.717 505.205ZM512.697 473.109C510.863 473.109 509.375 474.593 509.375 476.425V497.713C509.375 499.543 510.863 501.029 512.697 501.029H512.719C514.555 501.029 516.043 499.543 516.043 497.713V476.425C516.043 474.593 514.555 473.109 512.719 473.109H512.697ZM523.787 466.666C522.643 466.666 521.529 467.257 520.912 468.314L520.911 468.315C519.984 469.906 520.521 471.943 522.111 472.873L540.595 483.57C541.119 483.873 541.691 484.017 542.256 484.017C543.404 484.017 544.52 483.422 545.136 482.36L545.141 482.351C546.06 480.765 545.516 478.737 543.927 477.821L543.919 477.815L525.456 467.118C524.929 466.813 524.355 466.666 523.787 466.666ZM501.639 466.579C501.068 466.579 500.489 466.726 499.96 467.033L481.499 477.73C479.907 478.642 479.357 480.669 480.271 482.257L480.276 482.265C480.896 483.334 482.019 483.933 483.175 483.933C483.741 483.933 484.316 483.787 484.843 483.485L503.305 472.787C504.904 471.865 505.451 469.826 504.528 468.23C503.905 467.17 502.788 466.579 501.639 466.579ZM483.175 443.265C482.02 443.265 480.896 443.862 480.276 444.931C479.357 446.517 479.9 448.546 481.489 449.462L481.499 449.467L499.96 460.165C500.488 460.473 501.067 460.619 501.637 460.619C502.779 460.619 503.889 460.033 504.508 458.979L504.528 458.945C505.447 457.36 504.904 455.331 503.315 454.414L503.305 454.41L484.843 443.713C484.316 443.409 483.741 443.265 483.175 443.265ZM542.256 443.266C541.695 443.266 541.125 443.409 540.604 443.708L540.595 443.713L522.111 454.41C520.524 455.33 519.987 457.361 520.909 458.943L520.911 458.945C521.517 460.017 522.636 460.618 523.788 460.618C524.339 460.618 524.897 460.481 525.411 460.191L525.456 460.165L543.919 449.467C545.511 448.555 546.06 446.529 545.145 444.941L545.141 444.931C544.527 443.863 543.407 443.266 542.256 443.266ZM512.697 426.318C510.863 426.318 509.375 427.803 509.375 429.634V450.922C509.375 452.754 510.863 454.238 512.697 454.238H512.719C514.555 454.238 516.043 452.754 516.043 450.922V429.634C516.043 427.803 514.555 426.318 512.719 426.318H512.697Z" fill="#6C7A7F"/>
    <path d="M512.718 454.238H512.697C510.863 454.238 509.375 452.754 509.375 450.922V429.634C509.375 427.803 510.863 426.318 512.697 426.318H512.718C514.554 426.318 516.043 427.803 516.043 429.634V450.922C516.043 452.754 514.554 454.238 512.718 454.238Z" fill="#96A1A2"/>
    <path d="M512.718 501.029H512.697C510.863 501.029 509.375 499.543 509.375 497.713V476.425C509.375 474.593 510.863 473.109 512.697 473.109H512.718C514.554 473.109 516.043 474.593 516.043 476.425V497.713C516.043 499.543 514.554 501.029 512.718 501.029Z" fill="#96A1A2"/>
    <path d="M523.788 460.618C522.636 460.618 521.517 460.017 520.911 458.945L520.909 458.943C519.987 457.361 520.524 455.33 522.111 454.41L540.595 443.713L540.604 443.708C541.125 443.409 541.695 443.266 542.256 443.266C543.407 443.266 544.527 443.863 545.141 444.931L545.145 444.941C546.06 446.529 545.511 448.555 543.919 449.467L525.456 460.165L525.411 460.191C524.897 460.481 524.339 460.618 523.788 460.618Z" fill="#96A1A2"/>
    <path d="M483.175 483.933C482.019 483.933 480.896 483.334 480.276 482.265L480.271 482.257C479.357 480.669 479.907 478.642 481.499 477.73L499.96 467.033C500.489 466.726 501.068 466.579 501.639 466.579C502.788 466.579 503.905 467.17 504.528 468.23C505.451 469.826 504.904 471.865 503.305 472.787L484.843 483.485C484.316 483.787 483.741 483.933 483.175 483.933Z" fill="#96A1A2"/>
    <path d="M542.256 484.017C541.691 484.017 541.119 483.873 540.595 483.57L522.111 472.873C520.521 471.943 519.984 469.906 520.911 468.315L520.912 468.314C521.529 467.257 522.643 466.666 523.787 466.666C524.355 466.666 524.929 466.813 525.456 467.118L543.919 477.815L543.927 477.821C545.516 478.737 546.06 480.765 545.141 482.351L545.136 482.36C544.52 483.422 543.404 484.017 542.256 484.017Z" fill="#96A1A2"/>
    <path d="M501.637 460.619C501.067 460.619 500.488 460.473 499.96 460.165L481.499 449.467L481.489 449.462C479.9 448.546 479.357 446.517 480.276 444.931C480.896 443.862 482.02 443.265 483.175 443.265C483.741 443.265 484.316 443.409 484.843 443.713L503.305 454.41L503.315 454.414C504.904 455.331 505.447 457.36 504.528 458.945L504.508 458.979C503.889 460.033 502.779 460.619 501.637 460.619Z" fill="#96A1A2"/>
    <path d="M512.719 458.089C515.811 458.089 518.316 460.59 518.316 463.674C518.316 466.757 515.811 469.257 512.719 469.257C509.628 469.257 507.123 466.757 507.123 463.673C507.123 460.59 509.628 458.089 512.719 458.089Z" fill="#17282F"/>
    <path d="M393.371 263.303C393.371 263.303 395.369 257.309 395.203 257.309C395.036 257.309 411.521 244.321 411.521 244.321C411.521 244.321 426.676 251.981 430.505 256.31C434.336 260.639 434.835 275.294 434.835 275.294C434.835 275.294 428.673 281.122 428.008 281.455C427.341 281.787 407.692 293.278 406.859 292.613C406.027 291.946 393.371 263.303 393.371 263.303Z" fill="#2F3134"/>
    <path d="M342.608 449.715C331.736 449.715 321.215 447.999 312.899 443.266C282.721 426.089 296.649 364.882 295.489 363.597C295.435 363.538 295.467 363.51 295.576 363.51C297.825 363.51 333.128 375.601 333.128 375.601C333.128 375.601 323.741 392.31 323.743 407.642C323.743 413.161 324.96 418.501 328.268 422.818C339.016 436.851 351.563 440.872 366.127 441.942L367.141 447.329C359.293 448.73 350.849 449.715 342.608 449.715Z" fill="#0F191D"/>
    <path d="M104.441 417.043C103.803 417.999 96.8073 426.494 117.89 429.401C138.972 432.309 266.191 453.027 267.644 453.027C269.099 453.027 298.177 417.043 288.363 389.782C278.549 362.521 235.657 351.253 212.759 352.706C189.859 354.161 145.151 355.978 104.441 417.043Z" fill="#2F3134"/>
    <path d="M260.237 464.331L259.119 490.638C259.119 490.638 396.008 490.553 414.679 483.59C431.368 477.366 436.371 469.839 438.628 460.618C445.063 460.619 451.143 457.706 455.159 452.678C465.727 439.449 491.756 414.634 536.599 417.737C537.904 417.827 539.219 417.836 540.523 417.726C546.405 417.23 563.26 415.67 562.324 414.11C561.191 412.222 531.737 372.573 483.027 377.859C483.027 377.859 498.131 371.062 492.089 360.49C486.047 349.917 430.916 279.682 430.916 279.682C430.916 279.682 412.791 295.541 426.008 314.043C439.224 332.547 455.083 360.49 455.083 371.441C455.083 382.391 448.192 440.802 418.833 462.821C405.239 473.017 260.237 464.331 260.237 464.331Z" fill="#2F3134"/>
    <path d="M126.261 408.617C123.008 408.617 120.865 408.058 120.179 406.822C120.179 406.822 165.323 357.813 220.032 357.813C222.193 357.813 224.363 357.889 226.553 358.047C278.476 361.815 156.012 408.617 126.261 408.617Z" fill="#C7C8CA"/>
    <path d="M506.185 382.663C506.185 382.663 500.745 367.929 514.573 360.901C528.401 353.873 530.441 354.099 530.441 354.099L549.031 389.463C549.031 389.463 545.744 395.262 531.689 395.942C517.635 396.622 507.123 383.046 507.123 383.046L506.185 382.663Z" fill="#2F3134"/>
    <path d="M377.319 261.424L400.244 263.632L405.693 258.858C405.693 258.858 413.812 259.434 415.3 261.138C416.788 262.842 417.783 267.669 417.783 267.669C417.783 267.669 419.264 271.734 415.375 273.112C415.375 273.112 416.216 276.042 411.804 277.731C411.804 277.731 411.028 266.162 406.479 267.226C401.929 268.29 403.383 281.821 400.592 281.47C395.408 280.82 395.583 277.342 395.583 277.342L375.747 275.973L377.319 261.424Z" fill="#F7965E"/>
    <path d="M412.692 274.085C412.692 278.489 409.123 282.059 404.719 282.059C400.315 282.059 396.745 278.489 396.745 274.085C396.745 269.682 400.315 266.111 404.719 266.111C409.123 266.111 412.692 269.682 412.692 274.085Z" fill="#17282F"/>
    <path d="M267.588 453.024C267.587 453.024 267.585 453.024 267.585 453.024C267.587 453.024 267.587 453.024 267.588 453.024ZM267.48 453.013C267.475 453.012 267.468 453.01 267.461 453.01C267.468 453.01 267.473 453.012 267.48 453.013ZM267.46 453.01C267.459 453.01 267.459 453.01 267.457 453.009C267.457 453.01 267.459 453.01 267.46 453.01ZM267.447 453.009C267.445 453.008 267.445 453.008 267.445 453.008C267.445 453.008 267.447 453.008 267.447 453.009ZM267.367 452.998C267.367 452.998 267.365 452.998 267.364 452.998C267.365 452.998 267.365 452.998 267.367 452.998Z" fill="#0F191D"/>
    <path d="M220.808 445.618C220.797 445.617 220.792 445.615 220.783 445.614C220.791 445.615 220.8 445.617 220.808 445.618ZM220.557 445.578C220.536 445.574 220.517 445.572 220.495 445.569C220.515 445.572 220.539 445.575 220.557 445.578ZM220.481 445.566C220.392 445.551 220.299 445.537 220.208 445.522C220.3 445.537 220.391 445.551 220.481 445.566ZM213.019 444.37C208.513 443.649 203.9 442.909 199.245 442.163C203.903 442.91 208.511 443.648 213.019 444.37Z" fill="#475156"/>
    <path d="M218.891 445.312C216.959 445.001 214.999 444.687 213.019 444.37C214.997 444.687 216.961 445.002 218.891 445.312Z" fill="#626B6E"/>
    <path d="M288.316 389.653C288.315 389.65 288.313 389.646 288.313 389.642C288.315 389.646 288.315 389.649 288.316 389.653ZM288.291 389.583C288.291 389.582 288.288 389.577 288.288 389.575C288.289 389.578 288.291 389.581 288.291 389.583ZM288.265 389.514L288.264 389.51C288.265 389.511 288.265 389.513 288.265 389.514ZM288.216 389.381L288.215 389.378C288.215 389.379 288.216 389.381 288.216 389.381Z" fill="#0F191D"/>
    <path d="M267.644 453.027C267.643 453.027 267.641 453.027 267.64 453.027C267.637 453.027 267.635 453.027 267.632 453.027C267.632 453.027 267.632 453.027 267.631 453.027C267.631 453.027 267.631 453.027 267.629 453.027C267.629 453.027 267.629 453.027 267.628 453.027C267.628 453.027 267.628 453.027 267.627 453.027C267.627 453.027 267.627 453.027 267.625 453.027C267.625 453.027 267.625 453.027 267.624 453.027C267.624 453.027 267.623 453.027 267.621 453.027C267.62 453.027 267.617 453.026 267.616 453.026C267.615 453.026 267.615 453.026 267.613 453.026C267.612 453.026 267.611 453.026 267.608 453.026C267.607 453.026 267.607 453.026 267.605 453.026C267.604 453.026 267.604 453.026 267.604 453.026C267.603 453.026 267.603 453.026 267.603 453.026C267.601 453.025 267.601 453.025 267.601 453.025H267.6C267.599 453.025 267.599 453.025 267.597 453.025C267.595 453.025 267.592 453.025 267.591 453.025H267.589C267.589 453.025 267.589 453.025 267.588 453.025V453.024C267.587 453.024 267.587 453.024 267.585 453.024C267.584 453.024 267.584 453.024 267.584 453.024C267.583 453.024 267.583 453.024 267.583 453.024C267.581 453.024 267.58 453.024 267.579 453.024C267.577 453.024 267.577 453.024 267.576 453.024C267.575 453.024 267.575 453.024 267.573 453.022C267.569 453.022 267.565 453.022 267.561 453.021C267.56 453.021 267.56 453.021 267.56 453.021H267.559C267.553 453.021 267.547 453.019 267.541 453.019C267.539 453.019 267.536 453.018 267.532 453.018C267.531 453.018 267.531 453.018 267.529 453.018C267.529 453.018 267.529 453.018 267.528 453.018C267.528 453.018 267.527 453.018 267.525 453.018C267.524 453.017 267.524 453.017 267.523 453.017H267.521C267.52 453.017 267.517 453.017 267.516 453.017C267.515 453.017 267.515 453.017 267.515 453.017C267.509 453.015 267.505 453.015 267.5 453.014C267.496 453.014 267.491 453.014 267.487 453.013C267.485 453.013 267.484 453.013 267.484 453.013C267.483 453.013 267.483 453.013 267.483 453.013C267.481 453.013 267.481 453.013 267.48 453.013C267.473 453.012 267.468 453.01 267.461 453.01H267.46C267.459 453.01 267.457 453.01 267.457 453.009C267.455 453.009 267.452 453.009 267.451 453.009H267.449C267.448 453.009 267.448 453.009 267.447 453.009C267.447 453.008 267.445 453.008 267.445 453.008C267.441 453.008 267.437 453.008 267.433 453.006C267.432 453.006 267.432 453.006 267.432 453.006C267.427 453.006 267.421 453.005 267.415 453.005C267.413 453.003 267.412 453.003 267.411 453.003C267.409 453.003 267.408 453.003 267.407 453.003C267.404 453.003 267.401 453.002 267.399 453.002H267.397C267.396 453.002 267.395 453.002 267.393 453.002C267.388 453.001 267.383 452.999 267.377 452.999C267.375 452.999 267.372 452.998 267.369 452.998C267.368 452.998 267.368 452.998 267.367 452.998C267.365 452.998 267.365 452.998 267.364 452.998C267.355 452.997 267.345 452.996 267.335 452.994C267.333 452.994 267.333 452.994 267.332 452.993C267.247 452.982 267.144 452.969 267.027 452.951H267.025C267.016 452.95 267.007 452.949 266.997 452.948C266.996 452.948 266.996 452.948 266.995 452.948C263.303 452.425 244.625 449.436 221.552 445.738L221.551 445.737C221.304 445.698 221.055 445.658 220.808 445.618C220.8 445.617 220.791 445.615 220.783 445.614C220.708 445.602 220.632 445.59 220.557 445.578C220.539 445.575 220.515 445.572 220.495 445.569C220.491 445.567 220.485 445.566 220.481 445.566C220.391 445.551 220.3 445.537 220.208 445.522C220.191 445.519 220.176 445.517 220.159 445.514C219.737 445.448 219.313 445.379 218.891 445.312C216.961 445.002 214.997 444.687 213.019 444.37C208.511 443.648 203.903 442.91 199.245 442.163H199.244C199.596 442.219 209.02 443.282 220.169 443.282C227.905 443.282 236.473 442.77 243.411 441.055C252.105 442.565 260.299 443.986 267.709 445.27C267.748 445.277 267.787 445.279 267.824 445.279C268.143 445.281 268.424 445.051 268.48 444.727C268.543 444.365 268.3 444.019 267.937 443.957C261.307 442.808 254.051 441.55 246.369 440.217C249.567 439.175 252.268 437.81 254.167 436.034C265.909 425.045 281.099 397.285 278.999 388.61C276.924 380.038 262.661 363.998 262.32 363.615C274.06 369.585 283.956 378.065 288.191 389.311V389.313C288.199 389.335 288.207 389.355 288.215 389.378L288.216 389.381C288.232 389.425 288.248 389.467 288.264 389.51L288.265 389.514C288.273 389.534 288.28 389.555 288.288 389.575C288.288 389.577 288.291 389.582 288.291 389.583C288.299 389.603 288.305 389.623 288.313 389.642C288.313 389.646 288.315 389.65 288.316 389.653C288.324 389.673 288.331 389.693 288.337 389.713C288.339 389.714 288.34 389.717 288.34 389.719C288.348 389.739 288.356 389.761 288.363 389.782C289.777 393.709 290.384 397.817 290.381 401.971C290.373 426.663 268.889 453.027 267.644 453.027Z" fill="#161718"/>
    <path d="M458.629 407.719C458.629 407.719 465.092 392.211 468.851 387.511C472.611 382.811 483.027 377.859 483.027 377.859L477.311 383.046C477.311 383.046 473.081 387.394 470.828 395.967C468.575 404.541 458.629 407.719 458.629 407.719Z" fill="#161718"/>
    <path d="M542.556 394.757C542.34 394.598 542.122 394.439 541.904 394.281V394.15C541.94 394.138 541.974 394.126 542.009 394.114C542.334 394.483 542.518 394.711 542.556 394.757Z" fill="#A4A6A5"/>
    <path d="M541.904 394.281C541.864 394.253 541.823 394.222 541.781 394.193C541.823 394.178 541.864 394.165 541.904 394.15V394.281Z" fill="#8F9192"/>
    <path d="M542.563 394.765C542.287 394.579 542.007 394.394 541.727 394.211C541.745 394.205 541.764 394.199 541.781 394.193C541.823 394.222 541.864 394.253 541.904 394.281C542.123 394.439 542.34 394.598 542.556 394.757C542.56 394.762 542.563 394.765 542.563 394.765Z" fill="#2D5BB2"/>
    <path d="M541.727 394.211C526.92 384.558 505.215 377.859 505.215 377.859C506.507 377.717 507.776 377.649 509.023 377.649C526.549 377.649 539.267 390.985 542.009 394.114C541.975 394.126 541.94 394.138 541.904 394.15C541.864 394.165 541.823 394.178 541.781 394.193C541.764 394.199 541.745 394.205 541.727 394.211Z" fill="#1F2022"/>
    <path d="M243.411 441.055C203.237 434.082 152.329 425.221 118.086 419.289C117.723 419.226 117.48 418.881 117.542 418.518C117.599 418.194 117.88 417.965 118.199 417.965C118.237 417.965 118.275 417.969 118.313 417.975C153.339 424.042 205.795 433.174 246.369 440.217C245.424 440.524 244.435 440.803 243.411 441.055Z" fill="#1F2022"/>
    <path d="M267.824 445.279C267.787 445.279 267.748 445.277 267.709 445.27C260.299 443.986 252.105 442.565 243.411 441.055C244.435 440.803 245.424 440.524 246.369 440.217C254.051 441.55 261.307 442.808 267.937 443.957C268.3 444.019 268.543 444.365 268.48 444.727C268.424 445.051 268.143 445.281 267.824 445.279Z" fill="#1F2022"/>
    <path d="M331.68 374.402C331.448 374.323 325.957 372.566 317.737 369.937C305.417 365.994 287.009 360.103 271.277 355.055C263.412 352.53 256.215 350.215 250.781 348.461C245.352 346.706 241.669 345.505 240.885 345.225C240.539 345.101 240.157 345.282 240.033 345.629C239.909 345.975 240.091 346.357 240.437 346.481C241.549 346.877 247.696 348.87 256.353 351.658C269.329 355.838 287.901 361.787 303.305 366.718C318.705 371.646 330.963 375.566 331.249 375.663C331.599 375.782 331.977 375.595 332.096 375.247C332.215 374.899 332.028 374.521 331.68 374.402Z" fill="#040606"/>
    <path d="M455.219 434.593C455.076 434.593 454.932 434.546 454.811 434.453C454.52 434.227 454.467 433.809 454.692 433.517C468.988 415.061 492.253 404.243 515.499 404.239C520.964 404.239 526.427 404.838 531.773 406.078C532.132 406.162 532.355 406.521 532.272 406.879C532.2 407.187 531.927 407.396 531.623 407.396C531.573 407.396 531.523 407.389 531.472 407.378C526.229 406.161 520.865 405.573 515.499 405.573C515.495 405.573 515.492 405.573 515.488 405.573C492.657 405.573 469.756 416.233 455.747 434.334C455.615 434.503 455.417 434.593 455.219 434.593Z" fill="#1F2022"/>
    <path d="M433.597 264.411C433.431 263.571 433.243 262.738 433.031 261.936C433.392 263.229 433.564 264.213 433.597 264.411ZM430.505 256.31C429.515 255.19 427.767 253.846 425.717 252.472C427.9 253.905 429.761 255.303 430.505 256.31Z" fill="#EDEDEB"/>
    <path d="M433.603 264.448L424.763 262.808C424.763 262.808 414.829 252.241 414.103 251.018L415.123 246.285C415.123 246.285 421.128 249.456 425.717 252.472C427.767 253.846 429.515 255.19 430.505 256.31C431.752 257.996 432.555 260.234 433.031 261.936C433.243 262.738 433.431 263.572 433.597 264.412C433.601 264.436 433.603 264.448 433.603 264.448Z" fill="#C7C8CA"/>
    <path d="M475.795 361.109C475.636 361.109 475.476 361.053 475.349 360.938C475.159 360.767 474.905 360.499 474.553 360.11C474.204 359.721 473.767 359.218 473.248 358.607C472.212 357.389 470.857 355.742 469.268 353.755C466.089 349.782 461.976 344.445 457.624 338.435C448.917 326.415 439.26 311.73 434.221 299.869C434.077 299.53 434.236 299.138 434.575 298.994C434.66 298.958 434.748 298.941 434.835 298.941C435.095 298.941 435.341 299.094 435.449 299.347C444.736 321.251 470.447 353.566 475.544 359.218C475.879 359.59 476.129 359.849 476.24 359.946C476.513 360.193 476.536 360.614 476.291 360.887C476.159 361.034 475.977 361.109 475.795 361.109Z" fill="#1F2022"/>
    <path d="M356.413 142.354C358.083 142.786 359.459 144.201 359.844 145.882C360.228 147.565 359.604 149.437 358.288 150.551C359.585 150.635 360.309 152.287 359.899 153.522C359.489 154.755 358.347 155.589 357.209 156.219C357.835 156.573 358.116 157.361 358.049 158.077C357.983 158.791 357.627 159.446 357.232 160.046C355.513 162.657 352.873 164.647 349.891 165.579C349.891 165.579 350.096 144.906 350.728 144.643C351.359 144.381 356.413 142.354 356.413 142.354Z" fill="#17282F"/>
    <path d="M328.405 193.105C329.052 191.158 330.123 189.218 331.305 187.357L327.911 184.453L316.741 168.599C316.876 177.187 315.057 192.169 307.136 195.897L326.351 205.729C323.52 202.574 327.221 196.529 328.405 193.105Z" fill="#F7965E"/>
    <path d="M328.167 193.859C328.156 193.85 328.145 193.841 328.135 193.833C328.235 193.58 328.325 193.336 328.405 193.105C328.716 192.172 329.123 191.241 329.593 190.318C329.131 191.262 328.755 192.25 328.167 193.859Z" fill="#B6B8B6"/>
    <path d="M328.135 193.833C325.081 191.237 321.967 187.241 322.429 183.303C324.749 185.954 327.471 187.842 330.319 188.983C330.039 189.457 329.807 189.883 329.593 190.318C329.123 191.241 328.716 192.171 328.405 193.105C328.325 193.335 328.235 193.579 328.135 193.833Z" fill="#D97C49"/>
    <path d="M316.716 152.843C315.651 166.887 314.907 172.794 320.82 181.249C329.716 193.967 346.852 193.083 352.007 179.853C356.647 167.946 357.608 146.979 345.011 138.878C332.599 130.895 317.781 138.799 316.716 152.843Z" fill="#F7965E"/>
    <path d="M332.547 160.242C332.368 161.717 332.957 163.051 333.864 163.225C334.771 163.397 335.649 162.341 335.828 160.866C336.007 159.391 335.417 158.055 334.511 157.883C333.604 157.711 332.725 158.767 332.547 160.242Z" fill="#17282F"/>
    <path d="M346.968 162.683C346.797 164.113 347.392 165.411 348.296 165.583C349.199 165.755 350.069 164.735 350.24 163.306C350.411 161.877 349.816 160.578 348.912 160.406C348.009 160.234 347.139 161.254 346.968 162.683Z" fill="#17282F"/>
    <path d="M331.844 154.782C332.017 154.831 332.204 154.81 332.363 154.707C334.825 153.094 337.108 154.191 337.135 154.205C337.472 154.367 337.867 154.227 338.008 153.878C338.151 153.529 337.988 153.11 337.647 152.941C337.528 152.882 334.664 151.502 331.607 153.506C331.303 153.706 331.224 154.137 331.432 154.469C331.533 154.629 331.683 154.737 331.844 154.782Z" fill="#17282F"/>
    <path d="M353.275 156.457C353.421 156.434 353.555 156.35 353.641 156.209C353.82 155.917 353.733 155.493 353.448 155.262C350.587 152.953 348.016 153.909 347.907 153.951C347.6 154.07 347.467 154.452 347.609 154.804C347.751 155.156 348.112 155.345 348.419 155.229C348.519 155.19 350.525 154.482 352.8 156.319C352.948 156.438 353.119 156.482 353.275 156.457Z" fill="#17282F"/>
    <path d="M343.92 161.325C343.92 161.325 345.211 166.866 347.108 170.505C347.44 171.141 347.037 171.919 346.332 172.053C344.517 172.393 342.615 171.487 342.615 171.487L343.92 161.325Z" fill="#F46C3A"/>
    <path d="M333.98 157.855L337.28 157.641C337.28 157.641 335.145 159.715 333.98 157.855Z" fill="#17282F"/>
    <path d="M348.425 160.377L351.727 160.162C351.727 160.162 351.277 162.369 348.425 160.377Z" fill="#17282F"/>
    <path d="M318.773 166.102C318.773 166.102 323.788 166.214 322.303 160.138C322.303 160.138 328.257 158.07 326.156 150.878C326.156 150.878 331.975 152.109 334.412 146.261C334.412 146.261 339.091 150.931 344.295 147.053C344.295 147.053 351.979 153.598 355.084 147.823C355.084 147.823 366.312 145.195 357.688 138.371C357.688 138.371 359.7 123.363 344.873 128.991C344.873 128.991 338.144 118.294 327.995 127.607C327.995 127.607 319.532 123.458 316.331 133.718C316.331 133.718 307.091 132.749 306.024 145.778C306.024 145.778 298.405 149.877 305.215 157.385C305.215 157.385 303.827 160.967 307.868 165.065C307.868 165.065 308.751 170.285 312.236 171.393C312.236 171.393 314.684 178.659 316.6 178.01C318.517 177.359 316.532 169.381 318.773 166.102Z" fill="#17282F"/>
    <path d="M311.403 163.572C312.559 166.684 314.912 168.912 317.244 169.933C320.749 171.469 323.632 165.901 323.001 162.022C322.433 158.532 319.204 155.74 315.52 155.858C311.891 155.976 310.081 160.013 311.403 163.572Z" fill="#F7965E"/>
    <path d="M341.255 173.725C340.059 175.017 338.955 176.389 337.952 177.835L337.104 177.433C333.325 175.578 332.183 173.467 332.039 171.622C332.008 170.751 332.179 169.885 332.539 169.091C332.729 168.634 332.984 168.206 333.296 167.822C334.647 170.359 338.209 172.159 340.053 173.153C340.855 173.642 341.255 173.725 341.255 173.725Z" fill="#17282F"/>
    <path d="M339.967 173.047L338.96 174.23C335.46 172.466 333.132 170.766 332.551 169.131C332.741 168.674 332.997 168.247 333.309 167.862C334.735 170.078 338.148 172.134 339.967 173.047Z" fill="white"/>
    <path d="M337.104 177.433C333.325 175.578 332.183 173.467 332.039 171.622C333.487 172.333 334.789 173.305 335.881 174.49C336.591 175.318 337.019 176.347 337.104 177.433Z" fill="#F25159"/>
    <path d="M302.113 153.732C302.189 157.334 302.752 160.927 303.879 164.35C305.585 169.537 308.833 176.61 314.007 177.433C327.229 179.537 325.884 168.964 326.351 166.728C326.819 164.49 326.333 146.258 330.319 145.352C334.305 144.446 363.055 149.015 363.055 149.015C363.055 149.015 365.589 126.134 341.255 123.538C313.996 120.629 301.592 129.196 302.113 153.732Z" fill="#2F3134"/>
    <path d="M361.619 162.397V148.792C361.909 148.836 362.16 148.875 362.368 148.907C362.859 153.149 362.44 158.13 361.619 162.397Z" fill="#CFE0F4"/>
    <path d="M356.444 172.326C355.836 172.326 355.075 172.278 354.193 172.192C354.803 169.104 355.161 165.798 355.177 162.482C355.953 161.753 356.647 160.935 357.232 160.046C357.627 159.446 357.983 158.791 358.049 158.077C358.116 157.361 357.835 156.573 357.209 156.219C358.347 155.589 359.489 154.756 359.899 153.522C360.309 152.288 359.585 150.635 358.288 150.551C358.929 150.009 359.405 149.286 359.683 148.494C360.44 148.609 361.095 148.71 361.619 148.792V162.397C360.653 167.413 359.131 171.444 357.873 172.129C357.624 172.265 357.132 172.326 356.444 172.326Z" fill="#969CA6"/>
    <path d="M355.177 162.482C355.197 158.101 354.616 153.701 353.219 149.765C353.929 149.399 354.569 148.781 355.084 147.823C355.084 147.823 355.096 147.821 355.117 147.815C356.852 148.067 358.413 148.301 359.683 148.494C359.405 149.286 358.929 150.009 358.288 150.551C359.585 150.635 360.309 152.287 359.899 153.522C359.489 154.755 358.347 155.589 357.209 156.219C357.835 156.573 358.116 157.361 358.049 158.077C357.983 158.791 357.627 159.446 357.232 160.046C356.647 160.935 355.953 161.753 355.177 162.482Z" fill="#292727"/>
    <path d="M354.193 172.191C352.305 172.003 349.867 171.635 347.208 171.175C347.248 170.957 347.221 170.722 347.108 170.505C345.211 166.866 343.92 161.325 343.92 161.325L342.76 170.363C339.692 169.778 336.571 169.141 333.828 168.563C333.661 168.363 333.507 168.159 333.369 167.955C333.345 167.911 333.32 167.866 333.296 167.822C333.155 167.997 333.025 168.179 332.908 168.37C330.016 167.758 327.632 167.237 326.313 166.953C326.324 166.87 326.337 166.795 326.351 166.727C326.66 165.251 326.553 156.817 327.589 150.985C329.473 150.954 332.739 150.275 334.412 146.261C334.412 146.261 336.748 148.593 339.955 148.593C341.287 148.593 342.768 148.19 344.295 147.053C344.295 147.053 347.995 150.203 351.297 150.203C351.965 150.203 352.617 150.075 353.219 149.765C354.616 153.701 355.197 158.101 355.177 162.482C355.161 165.798 354.803 169.103 354.193 172.191ZM348.479 160.413C347.745 160.575 347.111 161.486 346.968 162.683C346.797 164.113 347.392 165.411 348.296 165.583C348.363 165.597 348.429 165.602 348.495 165.602C349.324 165.602 350.083 164.63 350.24 163.306C350.341 162.459 350.173 161.658 349.832 161.11C350.064 161.179 350.268 161.21 350.448 161.21C351.513 161.21 351.727 160.162 351.727 160.162L348.425 160.377C348.443 160.39 348.461 160.402 348.479 160.413ZM334.013 157.909C333.303 158.117 332.692 159.041 332.547 160.242C332.368 161.717 332.957 163.051 333.864 163.225C333.929 163.237 333.995 163.242 334.059 163.242C334.893 163.242 335.663 162.234 335.828 160.866C335.933 159.999 335.773 159.182 335.44 158.619C336.387 158.51 337.28 157.641 337.28 157.641L333.98 157.855C333.991 157.874 334.003 157.891 334.013 157.909ZM349.533 155.062C350.352 155.062 351.535 155.297 352.8 156.319C352.921 156.417 353.059 156.463 353.191 156.463C353.219 156.463 353.247 156.462 353.275 156.457C353.421 156.434 353.555 156.35 353.641 156.209C353.82 155.917 353.733 155.493 353.448 155.262C351.901 154.013 350.439 153.719 349.404 153.719C348.525 153.719 347.956 153.931 347.907 153.951C347.6 154.07 347.467 154.451 347.609 154.803C347.723 155.086 347.977 155.263 348.231 155.263C348.293 155.263 348.357 155.251 348.419 155.229C348.463 155.211 348.883 155.062 349.533 155.062ZM335.145 152.423C334.123 152.423 332.881 152.67 331.607 153.506C331.303 153.706 331.224 154.137 331.432 154.469C331.533 154.629 331.683 154.737 331.844 154.782C331.903 154.799 331.963 154.807 332.024 154.807C332.141 154.807 332.257 154.775 332.363 154.707C333.403 154.026 334.412 153.827 335.232 153.827C336.352 153.827 337.119 154.197 337.135 154.205C337.229 154.25 337.329 154.273 337.425 154.273C337.675 154.273 337.907 154.129 338.008 153.878C338.151 153.529 337.988 153.11 337.647 152.941C337.577 152.906 336.575 152.423 335.145 152.423Z" fill="#F7965E" fill-opacity="0.5"/>
    <path d="M354.193 172.191C352.305 172.003 349.867 171.635 347.208 171.175C347.248 170.957 347.221 170.722 347.108 170.505C345.211 166.866 343.92 161.325 343.92 161.325L342.76 170.363C339.692 169.778 336.571 169.141 333.828 168.563C333.661 168.363 333.507 168.159 333.369 167.955C333.345 167.911 333.32 167.866 333.296 167.822C333.155 167.997 333.025 168.179 332.908 168.37C330.016 167.758 327.632 167.237 326.313 166.953C326.324 166.87 326.337 166.795 326.351 166.727C326.66 165.251 326.553 156.817 327.589 150.985C329.473 150.954 332.739 150.275 334.412 146.261C334.412 146.261 336.748 148.593 339.955 148.593C341.287 148.593 342.768 148.19 344.295 147.053C344.295 147.053 347.995 150.203 351.297 150.203C351.965 150.203 352.617 150.075 353.219 149.765C354.616 153.701 355.197 158.101 355.177 162.482C355.161 165.798 354.803 169.103 354.193 172.191ZM348.479 160.413C347.745 160.575 347.111 161.486 346.968 162.683C346.797 164.113 347.392 165.411 348.296 165.583C348.363 165.597 348.429 165.602 348.495 165.602C349.324 165.602 350.083 164.63 350.24 163.306C350.341 162.459 350.173 161.658 349.832 161.11C350.064 161.179 350.268 161.21 350.448 161.21C351.513 161.21 351.727 160.162 351.727 160.162L348.425 160.377C348.443 160.39 348.461 160.402 348.479 160.413ZM334.013 157.909C333.303 158.117 332.692 159.041 332.547 160.242C332.368 161.717 332.957 163.051 333.864 163.225C333.929 163.237 333.995 163.242 334.059 163.242C334.893 163.242 335.663 162.234 335.828 160.866C335.933 159.999 335.773 159.182 335.44 158.619C336.387 158.51 337.28 157.641 337.28 157.641L333.98 157.855C333.991 157.874 334.003 157.891 334.013 157.909ZM349.533 155.062C350.352 155.062 351.535 155.297 352.8 156.319C352.921 156.417 353.059 156.463 353.191 156.463C353.219 156.463 353.247 156.462 353.275 156.457C353.421 156.434 353.555 156.35 353.641 156.209C353.82 155.917 353.733 155.493 353.448 155.262C351.901 154.013 350.439 153.719 349.404 153.719C348.525 153.719 347.956 153.931 347.907 153.951C347.6 154.07 347.467 154.451 347.609 154.803C347.723 155.086 347.977 155.263 348.231 155.263C348.293 155.263 348.357 155.251 348.419 155.229C348.463 155.211 348.883 155.062 349.533 155.062ZM335.145 152.423C334.123 152.423 332.881 152.67 331.607 153.506C331.303 153.706 331.224 154.137 331.432 154.469C331.533 154.629 331.683 154.737 331.844 154.782C331.903 154.799 331.963 154.807 332.024 154.807C332.141 154.807 332.257 154.775 332.363 154.707C333.403 154.026 334.412 153.827 335.232 153.827C336.352 153.827 337.119 154.197 337.135 154.205C337.229 154.25 337.329 154.273 337.425 154.273C337.675 154.273 337.907 154.129 338.008 153.878C338.151 153.529 337.988 153.11 337.647 152.941C337.577 152.906 336.575 152.423 335.145 152.423Z" fill="#969CA6" fill-opacity="0.5"/>
    <path d="M334.059 163.242C333.995 163.242 333.929 163.237 333.864 163.225C332.957 163.051 332.368 161.717 332.547 160.242C332.692 159.041 333.303 158.117 334.013 157.909C334.369 158.443 334.808 158.63 335.249 158.63C335.312 158.63 335.376 158.626 335.44 158.619C335.773 159.182 335.933 159.999 335.828 160.866C335.663 162.234 334.893 163.242 334.059 163.242Z" fill="#1A1B1C"/>
    <path d="M348.495 165.602C348.429 165.602 348.363 165.597 348.296 165.583C347.392 165.411 346.797 164.113 346.968 162.683C347.111 161.486 347.745 160.575 348.479 160.413C349.011 160.779 349.457 160.997 349.832 161.11C350.173 161.658 350.341 162.459 350.24 163.306C350.083 164.63 349.324 165.602 348.495 165.602Z" fill="#1A1B1C"/>
    <path d="M332.024 154.807C331.963 154.807 331.903 154.8 331.844 154.782C331.683 154.737 331.533 154.629 331.432 154.469C331.224 154.137 331.303 153.706 331.607 153.506C332.881 152.67 334.123 152.424 335.145 152.424C336.575 152.424 337.577 152.906 337.647 152.941C337.988 153.11 338.151 153.529 338.008 153.878C337.907 154.129 337.675 154.273 337.425 154.273C337.329 154.273 337.229 154.25 337.135 154.205C337.119 154.197 336.352 153.828 335.232 153.828C334.412 153.828 333.403 154.026 332.363 154.707C332.257 154.775 332.141 154.807 332.024 154.807Z" fill="#1A1B1C"/>
    <path d="M353.191 156.464C353.059 156.464 352.921 156.417 352.8 156.319C351.535 155.297 350.352 155.062 349.533 155.062C348.883 155.062 348.463 155.211 348.419 155.229C348.357 155.251 348.293 155.264 348.231 155.264C347.977 155.264 347.723 155.086 347.609 154.804C347.467 154.452 347.6 154.07 347.907 153.951C347.956 153.931 348.525 153.719 349.404 153.719C350.439 153.719 351.901 154.013 353.448 155.262C353.733 155.493 353.82 155.917 353.641 156.209C353.555 156.35 353.421 156.434 353.275 156.457C353.247 156.462 353.219 156.464 353.191 156.464Z" fill="#1E3E61"/>
    <path d="M347.208 171.175C345.772 170.927 344.272 170.651 342.76 170.363L343.92 161.325C343.92 161.325 345.211 166.866 347.108 170.505C347.221 170.722 347.248 170.957 347.208 171.175Z" fill="#DC6C5A"/>
    <path d="M335.249 158.63C334.808 158.63 334.369 158.443 334.013 157.909C334.003 157.891 333.991 157.874 333.98 157.855L337.28 157.641C337.28 157.641 336.387 158.51 335.44 158.619C335.376 158.626 335.312 158.63 335.249 158.63Z" fill="#1A1B1C"/>
    <path d="M350.448 161.21C350.268 161.21 350.064 161.179 349.832 161.11C349.457 160.997 349.011 160.779 348.479 160.413C348.461 160.402 348.443 160.39 348.425 160.377L351.727 160.162C351.727 160.162 351.513 161.21 350.448 161.21Z" fill="#1A1B1C"/>
    <path d="M327.589 150.985C328.124 147.975 328.963 145.661 330.319 145.351C330.679 145.27 331.24 145.233 331.963 145.233C336.516 145.233 347.504 146.707 355.117 147.815C355.096 147.821 355.084 147.823 355.084 147.823C354.569 148.781 353.929 149.399 353.219 149.765C352.617 150.075 351.965 150.203 351.297 150.203C347.995 150.203 344.295 147.053 344.295 147.053C342.768 148.19 341.287 148.593 339.955 148.593C336.748 148.593 334.412 146.261 334.412 146.261C332.739 150.275 329.473 150.954 327.589 150.985Z" fill="#292727"/>
    <path d="M332.941 168.377C332.931 168.375 332.919 168.373 332.908 168.37C333.025 168.18 333.155 167.997 333.296 167.822C333.32 167.866 333.345 167.912 333.369 167.956C333.349 167.925 333.329 167.893 333.309 167.862C333.176 168.026 333.053 168.198 332.941 168.377Z" fill="#1E3E61"/>
    <path d="M333.828 168.563C333.528 168.501 333.232 168.438 332.941 168.377C333.053 168.198 333.176 168.026 333.309 167.862C333.329 167.893 333.349 167.925 333.369 167.955C333.507 168.159 333.661 168.363 333.828 168.563Z" fill="#CFE0F5"/>
    <path d="M326.313 166.953C325.661 166.814 325.269 166.731 325.205 166.727C325.205 166.727 328.619 139.382 329.672 138.937C330.037 138.782 333.7 138.441 338.439 138.441C339.324 138.441 340.247 138.453 341.193 138.481C341.133 138.619 341.093 138.763 341.075 138.913C340.864 140.635 343.593 142.386 347.171 142.825C347.724 142.893 348.265 142.925 348.787 142.925C351.629 142.925 353.852 141.957 354.031 140.501C354.047 140.366 354.045 140.231 354.027 140.098C357.961 141.178 361.003 142.909 361.751 145.622C362.031 146.642 362.233 147.747 362.368 148.907C362.16 148.875 361.909 148.835 361.619 148.791C361.095 148.71 360.44 148.609 359.683 148.494C358.413 148.301 356.852 148.067 355.117 147.815C347.504 146.707 336.516 145.233 331.963 145.233C331.24 145.233 330.679 145.27 330.319 145.351C328.963 145.661 328.124 147.975 327.589 150.985C326.553 156.817 326.66 165.251 326.351 166.727C326.337 166.795 326.324 166.87 326.313 166.953Z" fill="#161718"/>
    <path d="M302.256 147.887L327.171 153.967L326.824 158.135L302.097 152.423C302.089 150.971 302.137 149.465 302.256 147.887Z" fill="white"/>
    <path d="M302.137 154.527L326.692 160.601L326.512 164.814L302.633 159.298C302.423 157.882 302.159 156.071 302.137 154.527Z" fill="white"/>
    <path d="M309.396 140.545C308.541 140.545 307.769 140.183 307.136 139.305C307.136 139.305 308.255 128.145 320.263 125.998C325.565 125.05 330.031 124.521 333.197 124.521C337.204 124.521 339.135 125.367 338.06 127.286C336.136 130.719 323.059 130.719 320.081 132.866C317.693 134.587 312.864 140.545 309.396 140.545Z" fill="#363739"/>
    <path d="M354.027 140.098C350.168 139.038 345.448 138.603 341.193 138.481C341.716 137.269 343.768 136.489 346.319 136.489C346.84 136.489 347.381 136.522 347.935 136.59C351.233 136.994 353.811 138.514 354.027 140.098Z" fill="#C7C8CA"/>
    <path d="M348.787 142.925C348.265 142.925 347.724 142.893 347.171 142.825C343.593 142.386 340.864 140.635 341.075 138.913C341.093 138.763 341.133 138.619 341.193 138.481C345.448 138.603 350.168 139.038 354.027 140.098C354.045 140.231 354.047 140.366 354.031 140.501C353.852 141.957 351.629 142.925 348.787 142.925Z" fill="#C7C8CA"/>
    <path d="M376.599 453.145L390.337 448.642L386.749 412.045L369.899 418.208L376.599 453.145Z" fill="#F7965E"/>
    <path d="M392.392 444.739L375.416 449.455C374.847 449.613 374.463 450.163 374.491 450.777L375.133 464.463C375.201 465.882 376.543 466.872 377.852 466.482C383.288 464.866 387.185 463.425 394.065 461.514C398.297 460.338 411.181 457.251 417.027 455.627C422.744 454.039 422.051 447.758 419.513 447.877C408.141 448.408 399.169 447.274 394.888 445.005C394.116 444.596 393.225 444.508 392.392 444.739Z" fill="#17282F"/>
    <path d="M377.269 466.567C376.172 466.567 375.191 465.672 375.133 464.463L374.491 450.777C374.489 450.753 374.489 450.729 374.489 450.706C374.492 450.121 374.869 449.608 375.416 449.455L392.392 444.739C392.693 444.655 393.003 444.613 393.311 444.613C393.853 444.613 394.395 444.743 394.888 445.005C398.468 446.902 405.328 448.006 414.131 448.006C415.853 448.006 417.652 447.963 419.513 447.877C419.537 447.875 419.561 447.874 419.584 447.874C420.673 447.874 421.405 449.069 421.403 450.539C421.399 452.417 420.201 454.746 417.027 455.627C411.181 457.251 398.297 460.338 394.065 461.514C387.185 463.425 383.288 464.866 377.852 466.482C377.657 466.539 377.461 466.567 377.269 466.567Z" fill="#0F191D"/>
    <path d="M252.809 285.514C252.809 285.514 232.559 323.202 269.191 337.382C296.792 348.066 350.928 361.201 350.928 361.201L367.168 447.477L398.533 440.605C398.533 440.605 389.375 382.857 383.711 344.961C381.896 332.818 376.937 331.647 374.399 329.922C366.244 324.382 305.297 301.925 305.297 301.925L306.701 296.798L252.809 285.514Z" fill="#406FBF"/>
    <path d="M367.168 447.477L367.141 447.329L366.127 441.942L351.789 365.778L358.879 354.929L350.928 361.201C350.928 361.201 296.792 348.066 269.191 337.382C251.787 330.645 247.223 318.602 247.225 307.815C247.228 299.722 249.803 292.336 251.455 288.429C253.389 290.85 258.391 293.055 269.757 295.323C287.839 298.931 297.752 299.607 302.643 299.607C304.268 299.607 305.339 299.533 305.971 299.467L305.875 299.814L305.297 301.925C305.297 301.925 366.244 324.382 374.399 329.922C376.937 331.647 381.896 332.818 383.711 344.961C389.375 382.857 398.533 440.605 398.533 440.605L389.739 442.531L375.176 445.722L367.168 447.477Z" fill="#2D5BB2"/>
    <path d="M351.789 365.778L351.381 363.613L350.928 361.201L358.879 354.929L351.789 365.778Z" fill="#24437F"/>
    <path d="M313.284 186.332C312.325 186.496 296.664 188.313 286.221 204.211C275.779 220.11 252.097 272.351 252.299 274.667C253.123 284.177 240.829 289.553 269.757 295.323C298.685 301.095 306.703 299.365 306.703 299.365C306.703 299.365 312.652 296.443 314.297 287.35C314.495 286.261 329.612 252.148 332.977 236.494C336.344 220.842 328.159 193.86 328.159 193.86L326.351 197.8L313.284 186.332Z" fill="#17282F"/>
    <path d="M317.188 279.297C317.188 279.297 311.723 266.59 307.136 252.011C307.111 251.929 307 251.894 306.831 251.894C306.4 251.894 305.585 252.114 304.769 252.334C303.953 252.554 303.135 252.774 302.697 252.774C302.531 252.774 302.419 252.742 302.385 252.665C295.96 238.111 291.941 222.646 292.76 221.65C292.793 221.609 292.839 221.59 292.895 221.59C293.015 221.59 293.184 221.679 293.4 221.85C296.997 232.911 303.776 250.095 303.776 250.095L310.585 246.782C314.603 253.465 318.896 260.009 322.868 265.501C322.849 265.546 318.176 276.91 317.188 279.297Z" fill="#0F191D"/>
    <path d="M311.244 187.163L315.093 183.549L330.319 192.975L327.799 201.005L311.244 187.163Z" fill="#17282F"/>
    <path d="M314.18 200.701C312.516 198.478 298.391 198.955 294.719 208.918C291.048 218.882 327.095 276.57 336.089 279.893C348.356 284.423 395.583 277.342 395.932 276.867L400.461 263.113L348.185 258.858C346.332 259.163 320.948 209.746 314.18 200.701Z" fill="#F7965E"/>
    <path d="M303.776 250.095L334.572 235.11C334.572 235.11 320.797 193.987 308.815 195.426C296.831 196.863 290.12 207.17 291.319 214.359C292.517 221.55 303.776 250.095 303.776 250.095Z" fill="#17282F"/>
    <path d="M319.62 203.303C318.203 201.294 316.744 199.547 315.271 198.209C316.239 198.927 317.16 199.839 318.005 200.979C318.543 201.702 319.083 202.479 319.62 203.303ZM295.96 201.13C295.805 201.13 295.652 201.058 295.553 200.921C295.393 200.697 295.444 200.385 295.669 200.223C295.703 200.209 299.825 197.226 304.96 196.235C302.193 197.081 299.796 198.422 297.811 200.058C297.209 200.402 296.759 200.691 296.501 200.865C296.335 200.977 296.252 201.035 296.252 201.037C296.163 201.099 296.061 201.13 295.96 201.13Z" fill="#0F191D"/>
    <path d="M333.789 235.235C333.585 235.235 333.393 235.11 333.32 234.906C333.32 234.906 333.191 234.551 332.948 233.906C332.777 233.45 332.549 232.85 332.271 232.129L332.745 231.929C333 231.822 333.119 231.529 333.012 231.274C332.931 231.083 332.745 230.969 332.551 230.969C332.485 230.969 332.42 230.981 332.356 231.007L331.908 231.197C331.905 231.189 331.903 231.181 331.899 231.173C330.997 228.863 329.712 225.675 328.183 222.159C325.127 215.13 321.081 206.779 317.203 201.577C314.56 198.042 311.312 196.929 308.092 196.919C308.083 196.919 308.075 196.919 308.065 196.919C303.953 196.919 299.936 198.838 297.811 200.058C299.796 198.422 302.193 197.081 304.96 196.235C305.972 196.039 307.024 195.922 308.092 195.919C308.105 195.919 308.119 195.919 308.131 195.919C310.533 195.919 313.028 196.543 315.271 198.209C316.744 199.547 318.203 201.294 319.62 203.303C323.056 208.562 326.441 215.653 329.1 221.761C332.171 228.822 334.257 234.558 334.26 234.565C334.353 234.825 334.22 235.111 333.96 235.206C333.904 235.226 333.847 235.235 333.789 235.235Z" fill="#0F191D"/>
    <path d="M302.097 244.821C301.903 244.821 301.717 244.705 301.636 244.514C301.529 244.259 301.648 243.967 301.903 243.859L331.908 231.197C332.037 231.526 332.159 231.837 332.271 232.129L302.292 244.781C302.228 244.807 302.163 244.821 302.097 244.821Z" fill="#0F191D"/>
    <path d="M332.271 232.129C332.159 231.837 332.037 231.526 331.908 231.197L332.356 231.007C332.42 230.981 332.485 230.969 332.551 230.969C332.745 230.969 332.931 231.083 333.012 231.274C333.119 231.529 333 231.822 332.745 231.929L332.271 232.129Z" fill="#0A0F12"/>
  </g>
</svg>